<?xml version="1.0" encoding="utf-8"?>
<!-- Generator: Adobe Illustrator 24.3.0, SVG Export Plug-In . SVG Version: 6.00 Build 0)  -->
<svg version="1.1" id="Layer_1" xmlns="http://www.w3.org/2000/svg" xmlns:xlink="http://www.w3.org/1999/xlink" x="0px" y="0px"
	 viewBox="0 0 320.9 236.7" style="enable-background:new 0 0 320.9 236.7;" xml:space="preserve">
<style type="text/css">
	.st0{fill:#FFFFFF;stroke:#000000;stroke-width:1.09;}
	.st1{fill:#E30613;}
	.st2{fill:#140E0C;}
	.st3{fill:#E8E4D9;}
	.st4{fill:#FBB800;}
</style>
<path id="big-circle" class="st0" d="M254.4,118.3c0-51.9-42.1-94-94-94s-94,42.1-94,94s42.1,94,94,94
	C212.3,212.3,254.4,170.2,254.4,118.3"/>
<path id="red-circle" class="st1" d="M222.3,165.4l-1.1,1.2l2,1.9l1.1-1.1c0.7-0.5,0.7-1.5,0.2-2.2c0,0-0.1-0.1-0.1-0.1
	C223.7,164.5,222.9,164.7,222.3,165.4 M104.6,171.1c-1.2,1.4-1.1,3.5,0.3,4.7c1.4,1.2,3.5,1.1,4.7-0.3c1.2-1.3,1.1-3.3-0.1-4.5
	c-1.3-1.3-3.4-1.3-4.7-0.1C104.7,171,104.7,171.1,104.6,171.1 M220.9,162.4c-0.5-0.4-1.2-0.4-1.7,0.1c0,0-0.1,0.1-0.1,0.1l-1.1,1.1
	l1.8,1.6l1-1.1C221.3,163.8,221.4,163,220.9,162.4C220.9,162.5,220.8,162.5,220.9,162.4 M243.8,118.3c0.4-0.6,0.6-1.2,0.6-1.9
	c0.1-1.9-1.4-3.4-3.3-3.5c-1.9-0.1-3.4,1.4-3.5,3.3c-0.1,1.9,1.4,3.4,3.2,3.5c0.1,0,0.3,0,0.4,0l-2.1,3.6h1.7L243.8,118.3z
	 M235.2,120.2c0-1.1-0.6-2.1-1.5-2.7c0.5-0.5,0.8-1.1,0.8-1.8c0-1.5-1.2-2.6-2.6-2.6c-1.5,0-2.6,1.2-2.6,2.6c0,0.7,0.3,1.3,0.7,1.8
	c-1,0.5-1.5,1.6-1.5,2.7c0.1,1.9,1.7,3.3,3.6,3.2C233.7,123.3,235.1,121.9,235.2,120.2 M225.8,163.6c-0.9-0.8-2.2-0.9-3.2-0.2
	c0.4-1,0.2-2.1-0.6-2.8c-1-1-2.6-0.9-4.1,0.7l-2.6,2.8l7.7,7.2l2.7-2.9c1.3-1.2,1.4-3.3,0.2-4.7
	C225.9,163.6,225.9,163.6,225.8,163.6 M216.7,173.1l-4.5-5.1l-1.6,1.4l4.3,5c0.8,0.7,0.9,2,0.2,2.8c-0.1,0.1-0.2,0.2-0.3,0.3
	c-0.8,0.8-2,0.8-2.8,0c-0.1-0.1-0.2-0.2-0.3-0.3l-4.3-5l-1.6,1.4l4.5,5.1c1.7,1.7,4.4,1.7,6.1,0C217.8,177.2,218,174.8,216.7,173.1
	 M209,184.3l-1-1.5l-3.5,2.4l-4.9-7.3l-1.8,1.2l5.9,8.8L209,184.3L209,184.3z M197.9,187.7l-2-0.1c0.1,1.4-0.6,2.8-1.9,3.3
	c-1.6,0.7-3.5,0.1-4.4-2c-0.9-1.5-0.3-3.5,1.2-4.3c0.1-0.1,0.3-0.2,0.4-0.2c1-0.5,2.1-0.4,3.1,0.2l0.8-1.9c-1.4-0.7-3.1-0.8-4.6-0.1
	c-2.7,1.1-4.1,4.3-2.9,7c0,0.1,0.1,0.2,0.1,0.3c1,2.7,4,4,6.7,3c0.1,0,0.2-0.1,0.3-0.1C196.7,191.9,197.9,189.9,197.9,187.7
	 M180.3,198l-0.4-1.8l-4.2,0.8l-1.7-8.6l-2.1,0.4l2.1,10.4L180.3,198z M169.1,200l-0.1-1.8l-4.2,0.2l-0.5-8.8l-2.1,0.1l0.6,10.6
	C162.8,200.4,169.1,200,169.1,200z M221.8,118.3c0-3.6-0.3-7.2-0.9-10.8c-0.2-1-0.5-2.2-0.5-2.2l3.5-12.2c0.8-2.6,1.1-3.3,0.6-4
	c-0.2-0.3-0.5-0.7-1.7-1l-10.5-2.6l-0.3-0.6c-18.4-28.5-56.4-36.6-84.8-18.2c-7.4,4.8-13.6,11-18.3,18.4l-0.2,0.4L98,88.2
	c-1.2,0.3-1.5,0.8-1.7,1c-0.4,0.7-0.1,1.4,0.6,4l3.5,12.2c0,0-0.3,1.1-0.5,2.1c-0.6,3.6-1,7.2-1,10.9c-0.4,33.9,26.7,61.7,60.6,62.2
	s61.7-26.7,62.2-60.6C221.8,119.4,221.8,118.9,221.8,118.3 M157.9,200.6l-3-11l-2-0.2l-5.2,10.1l2.3,0.2l1.1-2.3l3.9,0.4l0.6,2.5
	L157.9,200.6L157.9,200.6z M143.1,187.8l-3.7-1l-2.8,10.2l3.8,1.1c1.7,0.6,3.6-0.3,4.3-2c0-0.1,0-0.1,0-0.2c0.3-1.2-0.2-2.4-1.3-2.9
	c1.1-0.1,2-0.8,2.2-1.8C146,189.8,145.2,188.4,143.1,187.8 M135.4,185.6l-8-3.6l-0.8,1.7l3,1.4l-3.6,8l1.9,0.9l3.7-8l3,1.4
	L135.4,185.6L135.4,185.6z M120.8,177.6c-2.6-1.7-6-1-7.7,1.6c-1.7,2.6-1,6,1.6,7.7s6,1,7.7-1.6c0,0,0.1-0.1,0.1-0.1
	c1.7-2.5,1-5.8-1.4-7.5C120.9,177.6,120.9,177.6,120.8,177.6 M110.8,177.4c2.1-2.1,2.1-5.6,0-7.7c-2.1-2.1-5.6-2.1-7.7,0
	c-2.1,2.1-2.1,5.5-0.1,7.7c2,2.2,5.5,2.3,7.6,0.2C110.7,177.5,110.7,177.5,110.8,177.4 M99.3,163.2l2.1-1.5l2.5,3.5l1.5-1.1
	l-3.8-5.2l-8.5,6.3l1.3,1.7l3.5-2.6l2,2.8l1.5-1.1C101.3,166,99.3,163.2,99.3,163.2z M90.3,120.2c0-1.1-0.6-2.1-1.5-2.7
	c0.5-0.5,0.8-1.1,0.8-1.8c-0.1-1.5-1.3-2.6-2.8-2.5c-1.3,0.1-2.4,1.1-2.5,2.5c0,0.7,0.2,1.3,0.7,1.8c-1,0.5-1.5,1.6-1.5,2.7
	c0,1.8,1.5,3.3,3.3,3.2c0,0,0.1,0,0.1,0c1.8,0.1,3.3-1.3,3.4-3.1C90.3,120.3,90.3,120.2,90.3,120.2 M80.1,113.2l-1.6,1v9.2h1.6
	V113.2L80.1,113.2z M94.1,69.3l10.8,9l3.4-4c1.7-1.8,1.6-4.6-0.1-6.2c-0.1-0.1-0.1-0.1-0.2-0.2c-1.2-1.1-3.1-1.1-4.3,0
	c0.5-1.3,0.1-2.8-0.9-3.7c-1.4-1.2-3.6-1-5.4,1.2L94.1,69.3z M106.2,56.4l8.8,11l2.2-1.8l-3.5-4.3l1-0.8l5.9,2.4l2.7-2.2l-6.6-2.6
	c0.8-1.5,0.7-3.3-0.4-4.6c-1.4-1.8-3.8-2.1-6-0.4L106.2,56.4z M121.2,45.9l6.1,12.7l7.8-3.8l-1-2.2l-5.3,2.5l-1.5-3.1l4.1-2l-1-2.2
	l-4.1,2l-1.5-3.1l5.1-2.5l-1-2.2l-7.7,3.7H121.2z M136.8,39.5l3.1,13.7l2.8-0.6l-2-8.6l8.4,7.2l2.6-0.6l-3.1-13.7l-2.8,0.6l2,8.7
	l-8.4-7.2L136.8,39.5z M154.7,38.5h4.4L159,50.2h2.8l0.1-11.7h4.4v-2.4l-11.6-0.1V38.5L154.7,38.5z M170.2,50.8l2.8,0.5l1.1-5.7
	l4.5,0.9l0.5-2.4l-4.5-0.9l0.6-3.4l5.6,1.1l0.5-2.4l-8.4-1.6C172.8,37,170.2,50.8,170.2,50.8z M187.1,56.3c3.6,1.6,7.9-0.1,9.4-3.7
	c0-0.1,0.1-0.2,0.1-0.3c1.5-3.7-0.2-7.9-3.9-9.5s-7.9,0.2-9.5,3.9l0,0c-1.6,3.6,0,7.8,3.6,9.5C186.9,56.2,187,56.2,187.1,56.3
	 M205.4,49.6l-8.5,11.2l2.2,1.7l3.4-4.4l1,0.8l-0.9,6.3l2.7,2.1l0.9-7.1c1.6,0.4,3.4-0.1,4.4-1.5c1.4-1.8,1.2-4.2-1.1-5.9
	L205.4,49.6L205.4,49.6z M219,60.8l-10,9.9l3.3,3.3c2.6,2.9,7.1,3.2,10,0.6c0.1-0.1,0.2-0.2,0.3-0.3c2.7-2.6,2.8-6.9,0.2-9.6
	c-0.1-0.1-0.2-0.2-0.3-0.3L219,60.8L219,60.8z M251,118.3c0,50-40.6,90.6-90.6,90.6s-90.6-40.6-90.6-90.6c0-50,40.5-90.6,90.6-90.6
	C210.5,27.8,251,68.3,251,118.3 M188.1,53.8c2.3,0.9,4.8-0.1,5.8-2.4c0-0.1,0.1-0.2,0.1-0.3c1.1-2.2,0.3-4.8-1.9-6
	c-2.2-1.1-4.8-0.3-6,1.9c-0.1,0.2-0.2,0.4-0.3,0.6c-1.1,2.2-0.2,4.8,1.9,5.9C187.9,53.8,188,53.8,188.1,53.8 M208.3,57.1
	c0.6-0.8,0.5-1.9-0.3-2.5c-0.1,0-0.1-0.1-0.2-0.1l-1.6-1.2l-2.2,2.9l1.6,1.1c0.8,0.7,2,0.6,2.7-0.1
	C208.2,57.2,208.3,57.1,208.3,57.1 M241,114.5c-1,0-1.8,0.7-1.8,1.7c0,0,0,0.1,0,0.1c0,1,0.8,1.8,1.8,1.8c1,0,1.8-0.8,1.8-1.8
	C242.8,115.3,242,114.5,241,114.5 M231.8,118.3c-1,0-1.8,0.9-1.8,1.9c0,1,0.9,1.8,1.9,1.8c1,0,1.8-0.8,1.8-1.8c0-1-0.7-1.8-1.7-1.8
	C231.9,118.3,231.9,118.3,231.8,118.3 M231.8,116.9c0.7,0,1.2-0.5,1.2-1.1c0-0.7-0.5-1.2-1.1-1.2c-0.7,0-1.2,0.5-1.2,1.1
	c0,0,0,0,0,0.1C230.6,116.4,231.1,116.9,231.8,116.9C231.8,116.9,231.8,116.9,231.8,116.9 M220.4,72.4c1.8-1.7,2.3-4.3,0.3-6.3
	l-1.5-1.5l-6.6,6.5l1.5,1.5C216.1,74.6,218.7,74.1,220.4,72.4 M114.2,55.4c-0.6-0.8-1.7-0.9-2.5-0.3c0,0-0.1,0.1-0.1,0.1l-1.6,1.3
	l2.3,2.9l1.5-1.2c0.9-0.6,1.1-1.8,0.5-2.6C114.2,55.5,114.2,55.5,114.2,55.4 M86.9,118.3c-1,0-1.8,0.9-1.8,1.8c0,1,0.9,1.8,1.8,1.8
	c1,0,1.8-0.8,1.8-1.8c0-1-0.8-1.8-1.7-1.8C87,118.3,86.9,118.3,86.9,118.3 M141.4,193.6l-1.6-0.4l-0.8,2.7l1.5,0.4
	c0.8,0.3,1.7-0.1,2-0.9c0,0,0,0,0,0C142.9,194.4,142.3,193.8,141.4,193.6 M119.8,179.2c-1.6-1.2-3.8-0.9-5,0.7
	c-1.2,1.6-0.9,3.8,0.7,5c1.6,1.2,3.8,0.9,5-0.7c0.1-0.1,0.1-0.1,0.1-0.2c1.1-1.5,0.8-3.6-0.7-4.7
	C119.9,179.3,119.9,179.2,119.8,179.2 M86.9,116.9c0.6-0.1,1.1-0.6,1.1-1.3c-0.1-0.6-0.5-1-1.1-1.1c-0.6,0.1-1.1,0.6-1.1,1.3
	C85.9,116.4,86.3,116.9,86.9,116.9 M99.1,67.2l-1.3,1.6l2.4,2l1.3-1.5c0.6-0.7,0.6-1.7,0-2.4c0,0-0.1-0.1-0.1-0.1
	c-0.7-0.5-1.6-0.4-2.2,0.2C99.2,67.2,99.2,67.2,99.1,67.2 M142.5,189.5l-1.5-0.4l-0.7,2.3l1.4,0.4c0.7,0.2,1.4-0.1,1.6-0.8
	c0,0,0-0.1,0-0.1c0.2-0.6-0.2-1.3-0.8-1.4C142.6,189.5,142.5,189.5,142.5,189.5 M152.1,195.5l2.4,0.2l-0.9-3.4L152.1,195.5z
	 M106.2,73.1l-1.3,1.6l-2.8-2.4l1.4-1.7c0.8-0.9,1.8-1.3,2.8-0.5c0.8,0.7,0.9,2,0.2,2.8C106.3,73,106.3,73.1,106.2,73.1"/>
<path id="middle-black-border" class="st2" d="M113.5,86.5c17.6-26,52.9-32.8,78.8-15.2c6.1,4.1,11.3,9.4,15.4,15.5l2.2-0.9
	c-17.8-27.3-54.4-34.9-81.7-17c-6.7,4.4-12.4,10.1-16.9,16.8L113.5,86.5L113.5,86.5z M102.3,107.7c-5.9,32.1,15.3,62.9,47.4,68.8
	s62.9-15.3,68.8-47.4c0.7-3.5,1-7.2,1-10.8c0-3.6-0.3-7.2-1-10.7h-2.3c0.7,3.5,1,7.1,1,10.7c0,31.4-25.4,56.8-56.7,56.9
	s-56.8-25.4-56.9-56.7c0-3.6,0.3-7.2,1-10.8L102.3,107.7z"/>
<path id="grey-lines" class="st3" d="M118.2,121.2v30l1-0.2v-29.8L118.2,121.2z M119.2,89V82l-1,1v5.6L119.2,89L119.2,89z
	 M151.7,77.7v7.5l1-0.5v-5.3L151.7,77.7L151.7,77.7z M151.7,157.3v15.5l1,0.2v-14.8L151.7,157.3L151.7,157.3z M152.7,73.1v-9.3
	l-1,0.2v8.5C151.7,72.5,152.7,73.1,152.7,73.1z M136,120.3v-2.2l-1,0.7v3.6L136,120.3L136,120.3z M136,95.9v-4.5l-1-1.2v5.2
	L136,95.9L136,95.9z M135,140.6v26.4l1,0.6v-28.7L135,140.6L135,140.6z M136,83.3V68.6l-1,0.6v13.1L136,83.3L136,83.3z M202.2,121.3
	V151l1,0.2v-30L202.2,121.3L202.2,121.3z M203.3,88.6V83l-1-1v6.9L203.3,88.6L203.3,88.6z M168.7,79.3v5.3l1,0.5v-7.5L168.7,79.3
	L168.7,79.3z M168.7,158.1V173l1-0.2v-15.5L168.7,158.1L168.7,158.1z M169.7,72.5V64l-1-0.2v9.3L169.7,72.5L169.7,72.5z
	 M186.4,122.4v-3.6l-1-0.7v2.2L186.4,122.4L186.4,122.4z M186.4,95.4v-5.3l-1,1.2v4.5L186.4,95.4L186.4,95.4z M185.4,138.9v28.7
	l1-0.6v-26.4L185.4,138.9L185.4,138.9z M185.4,83.3V68.6l1,0.6v13.1L185.4,83.3L185.4,83.3z"/>
<g id="bee">
	<path id="path350-7" class="st2" d="M177,101l34.1-13.8l-5.9,9.4l-28.2,6.5L177,101L177,101z M177,104.7v1.5h41.1l-13.3-7.2
		L177,104.7L177,104.7z M99.1,92.6l3.2,11.3l11.6-6.1c0,0-6.1-10.1-6.1-10l-7.1,1.8c-1.4,0.4-1.8,0.6-2,0.9
		C98.5,90.8,98.6,91.2,99.1,92.6 M116,98.9l-13.2,7.2h41.1v-1.5L116,98.9L116,98.9z M110.5,110.5c0,0.4,0.3,0.7,0.9,1.3l7.7,7.6
		l6.2-5.9l-11.6-4.9l-2.3,1.2C110.7,110.1,110.5,110.3,110.5,110.5 M144,101L110,87.2l5.9,9.4l28.2,6.5L144,101L144,101z
		 M116.3,107.7l10.7,4.3l17.1-2.8v-1.5L116.3,107.7z M127.9,113.8c0.2-0.1-6.8,6.3-6.8,6.3l5.1,0.3c0.8,0.1,1.7,0,2.5-0.1
		c0.9-0.3,1.7-0.7,2.6-1.2c0,0,12.9-6.9,12.9-7v-1.5C144.1,110.6,127.7,113.9,127.9,113.8 M177,110.6v1.5c0,0.1,12.9,7,12.9,7
		c0.8,0.5,1.7,0.9,2.5,1.3c0.8,0.1,1.7,0.2,2.5,0.1l5.1-0.3c0,0-7-6.4-6.9-6.3S177,110.6,177,110.6 M209.7,109.8l-2.3-1.2l-11.6,4.9
		l6.2,5.9l7.7-7.6c0.5-0.6,0.9-0.9,0.9-1.3S210.3,110.1,209.7,109.8 M190.6,137.8c-0.2-0.3-6.1-16-6.1-16c-1-2.5-1.9-2.9-3.7-4
		l-4.1-2.6l-0.2,0.2l4.7,6.4v9.3l15.2,19.4c2.1,2.6,2.1,3.4,5.2,3.4l1.9-0.9l-3.5-0.6C200,152.4,190.8,138.1,190.6,137.8
		 M130.5,137.8c-0.2,0.3-9.3,14.6-9.3,14.6l-3.5,0.6l1.9,0.9c3,0,3.1-0.9,5.2-3.4l15.2-19.3v-9.3l4.7-6.4l-0.2-0.2l-4.1,2.6
		c-1.8,1-2.7,1.4-3.7,4C136.6,121.8,130.6,137.5,130.5,137.8 M222,90.5c-0.2-0.3-0.6-0.5-2-0.9l-7.1-1.8c0-0.1-6.1,10-6.1,10
		l11.6,6.1l3.3-11.3C222.1,91.1,222.2,90.8,222,90.5 M176.9,107.7v1.5l17.1,2.8l10.7-4.3H176.9z M176.5,98.6l10.9-11.8l7-8.5
		l0.4-2.3l-0.7-0.7l-0.9,2.6L175,94.5C175,94.7,176.5,98.5,176.5,98.6 M133.5,86.7l10.9,11.8c0,0,1.5-3.9,1.6-4L127.8,78l-0.9-2.6
		l-0.7,0.7l0.4,2.3L133.5,86.7L133.5,86.7z M144.9,71l1.6,1.9l5.1,2.8l5.1,7.4l-1.4,2c0,0-2.9,1-3.5,1.7c-0.8,1-0.9,4.7-0.9,4.7
		l-2.3,1.3l-2.7,8v12.6l1.9,1.3l-5.7,8V142l6.3,10.7l8.7,6.6l3.4,4.2l3.3-4.2l8.7-6.6l6.4-10.8v-19.3l-5.6-8l1.8-1.2v-12.6l-2.7-8
		l-2.3-1.3c0,0-0.1-3.7-0.9-4.7c-0.6-0.8-3.5-1.7-3.5-1.7l-1.4-1.9l5.2-7.5l5.1-2.8l1.6-1.9l-2.5,0.8l-5.4,3l-5.2,7.3l-2.6-0.7
		l-2.7,0.6l-5.2-7.3l-5.4-3L144.9,71L144.9,71z M155.3,85.9l0.8,3.6l-3.5,1.4L155.3,85.9L155.3,85.9z M165.7,85.9l2.7,5l-3.5-1.4
		L165.7,85.9L165.7,85.9z M160.4,100.1l10.5,4.6l-3.5,7.9v-6.2l-7-3.6l-10,1.1l0-0.3L160.4,100.1z M147.9,135.9l6.8,2.5h11.8
		l6.8-2.4l0.1,0.2l-6.2,4.7h-13.1l-6.1-4.7L147.9,135.9L147.9,135.9z"/>
	<path id="path4656" class="st4" d="M175.1,144.8l-8.6,3h-12l-8.5-3l3,5.2l7.1,2.6l-5-0.1l6.7,5.1h5.2l6.7-5.1l-5,0.1l7.1-2.6
		L175.1,144.8z M147.8,100.6l7.2-3.8h11.1l7.2,3.8l-0.8-2.2l-5.2-4.3l4.6,1.6l-0.5-1.6c0,0-5-2.4-5-2.7h-11.7c-0.1,0.2-5,2.7-5,2.7
		l-0.5,1.6l4.6-1.6l-5.2,4.3L147.8,100.6L147.8,100.6z M176.8,123.3L176.8,123.3l-10.1,1.2l7.7-4.2l-3-4.2l-4.4,2.9h-12.9l-4.2-2.8
		l-3,4.2l7.6,4.2l-10.1-1.2l0,0v5.4l6.5,2.4h19.4l6.5-2.4L176.8,123.3L176.8,123.3z"/>
</g>
</svg>
