<?xml version="1.0" encoding="utf-8"?>
<!-- Generator: Adobe Illustrator 26.0.3, SVG Export Plug-In . SVG Version: 6.00 Build 0)  -->
<svg version="1.0" id="katman_1" xmlns="http://www.w3.org/2000/svg" xmlns:xlink="http://www.w3.org/1999/xlink" x="0px" y="0px"
	 viewBox="0 0 600 450" style="enable-background:new 0 0 600 450;" xml:space="preserve">
<style type="text/css">
	.st0{fill:#FFFFFF;}
	.st1{fill:#004A98;}
	.st2{fill:#F9B006;}
</style>
<path class="st0" d="M468,226c0,95.5-77.5,173-173,173s-173-77.5-173-173S199.5,53,295,53S468,130.5,468,226L468,226z M468,226"/>
<path class="st1" d="M241.7,363.1l-4.6-1.9l5.1-5.8L241.7,363.1z M227.6,365.5l4.3,1.8l2.6-3l6.9,2.8l-0.3,4l0.1,0l0-0.1h0.1h-0.1
	l0,0.1l4.2,1.7l0.9-23l-3.2-1.3L227.6,365.5z M262.2,354.9l-4.3-1l-5,21.1l0.1,0l13.6,3.3l0.9-3.9l-9.4-2.3L262.2,354.9z
	 M287.4,365.1c-0.1,0.7-0.3,1.3-0.8,1.6c-0.4,0.3-1,0.5-1.7,0.5c-0.1,0-0.2,0-0.4,0l-4-0.3l0.4-4.7l4,0.3c0.9,0.1,1.5,0.3,1.9,0.8
	c0.4,0.4,0.6,0.9,0.6,1.5C287.4,364.9,287.4,365,287.4,365.1L287.4,365.1z M287,373.9c-0.1,0.7-0.4,1.3-0.8,1.7
	c-0.4,0.4-1,0.6-1.7,0.6c-0.1,0-0.2,0-0.3,0l-4.2-0.3l0.4-5l4.2,0.3c0.9,0.1,1.5,0.4,1.9,0.9c0.4,0.4,0.6,1,0.6,1.6V373.9z
	 M291.8,365.2c0-0.2,0-0.4,0-0.7c0-1.6-0.5-2.9-1.5-4c-1.1-1.2-2.7-1.9-4.8-2l-8.7-0.7l-1.7,21.6l9.1,0.7c0.3,0,0.5,0,0.8,0h0
	c1.6,0,3-0.4,4.1-1.3c1.3-1,2.1-2.5,2.2-4.5c0-0.2,0-0.4,0-0.6c0-1-0.2-1.9-0.7-2.6c-0.5-0.8-1.1-1.4-1.8-1.8
	c0.6-0.3,1.2-0.8,1.8-1.4C291.4,367.3,291.7,366.3,291.8,365.2L291.8,365.2z M299.3,358.9l1,21.6h0.1l4.3-0.2l-1-21.6L299.3,358.9z
	 M324.3,371.1c0,0.4,0,0.8-0.1,1c-0.1,0.3-0.2,0.6-0.4,0.8c-0.5,0.8-1.3,1.4-2.4,1.5c-0.3,0-0.5,0.1-0.7,0.1c-0.3,0-0.5,0-0.8-0.1
	c-0.5-0.1-0.9-0.3-1.2-0.6c-0.3-0.2-0.5-0.4-0.6-0.6c-0.1-0.2-0.3-0.6-0.5-1c-0.1-0.4-0.3-0.9-0.4-1.5c-0.1-0.6-0.3-1.5-0.5-2.5
	c-0.2-1.1-0.3-1.9-0.4-2.6c-0.1-0.5-0.1-1-0.1-1.5V364c0-0.4,0-0.8,0.1-1.1c0.1-0.3,0.2-0.6,0.3-0.8c0.2-0.4,0.5-0.7,0.9-1
	c0.4-0.3,0.9-0.4,1.4-0.5c0.3,0,0.5-0.1,0.7-0.1c0.8,0,1.4,0.2,2,0.7c0.3,0.2,0.4,0.4,0.6,0.6c0.2,0.2,0.3,0.6,0.5,1
	c0.1,0.4,0.3,0.9,0.4,1.5c0.2,0.7,0.3,1.5,0.5,2.5c0.2,1,0.3,1.9,0.4,2.5c0.1,0.6,0.1,1.1,0.1,1.5C324.3,371,324.3,371,324.3,371.1
	L324.3,371.1z M328.8,371.3c0-1.2-0.2-2.9-0.6-5.1c-0.4-2.3-0.8-4.1-1.3-5.2c-0.4-1.1-1.2-2.1-2.4-2.9c-0.9-0.7-1.9-1.1-2.9-1.3
	c-0.5-0.1-1.1-0.2-1.6-0.2c-0.5,0-1.1,0-1.6,0.1c-1.2,0.2-2.2,0.6-3.1,1.2c-0.9,0.6-1.6,1.3-2.3,2.2c-0.8,1.1-1.1,2.3-1.2,3.5v0.2
	c0,1.2,0.2,2.9,0.6,5.1c0.4,2.3,0.8,4,1.3,5.2c0.4,1.2,1.2,2.1,2.3,2.9c0.9,0.7,1.9,1.1,2.9,1.3c0.5,0.1,1.1,0.2,1.6,0.2
	c0.5,0,1.1,0,1.7-0.2c1.2-0.2,2.2-0.6,3.1-1.2c0.9-0.6,1.6-1.3,2.3-2.2c0.8-1.1,1.2-2.3,1.2-3.6h-0.1h0.1V371.3z M347.6,348.4
	l-4.1,1.5l4.3,12.1l-12.2-9.3l-3.7,1.3l7.3,20.4l4.2-1.5l-4.3-12.1l12.2,9.3l0,0l3.6-1.3L347.6,348.4z M347.6,348.4"/>
<path class="st1" d="M295,390.2c-90.7,0-164.2-73.5-164.2-164.2c0-90.7,73.5-164.2,164.2-164.2S459.2,135.3,459.2,226
	C459.2,316.7,385.7,390.2,295,390.2L295,390.2z M295,55.2c-94.3,0-170.8,76.5-170.8,170.8c0,94.3,76.5,170.8,170.8,170.8
	S465.8,320.4,465.8,226C465.8,131.7,389.3,55.2,295,55.2L295,55.2z M295,55.2"/>
<path class="st1" d="M171.5,141.9c-0.6,0.2-1.1,0.6-1.6,1.3l-2.1,3.3l3.8,2.5l2.1-3.3c0.4-0.6,0.6-1.1,0.6-1.6c0-0.1,0-0.2,0-0.3
	c-0.1-0.6-0.5-1.1-1-1.5c-0.4-0.3-0.8-0.4-1.3-0.4C171.9,141.8,171.7,141.8,171.5,141.9L171.5,141.9z M178.9,146.3
	c-0.6,0.1-1.2,0.5-1.6,1.3l-2.3,3.5l4.1,2.7l2.3-3.5c0.4-0.6,0.5-1.1,0.5-1.6c0-0.1,0-0.3,0-0.5c-0.2-0.7-0.5-1.1-1.1-1.5
	c-0.5-0.3-0.9-0.4-1.4-0.4C179.2,146.3,179,146.3,178.9,146.3L178.9,146.3z M186.1,147.2c0,0.3,0.1,0.6,0.1,0.9c0,1.3-0.5,2.7-1.3,4
	l-4.9,7.5l-17.7-11.6l4.7-7.2c1.2-1.7,2.5-2.8,4-3.2c0.4-0.1,0.9-0.2,1.3-0.2c1.1,0,2.2,0.4,3.3,1.1c0.9,0.6,1.5,1.3,1.9,2.2
	c0.3,0.7,0.4,1.3,0.4,1.9v0.3c0.7-0.4,1.5-0.6,2.4-0.7h0.3c0.9,0,1.8,0.3,2.8,0.9C184.9,144.2,185.8,145.5,186.1,147.2 M187.2,123.1
	c-0.7,0.1-1.4,0.4-1.9,1.1l-2.6,2.8l3.9,3.6l2.6-2.8c0.6-0.7,0.9-1.3,0.9-2c0-0.7-0.3-1.3-0.9-1.9c-0.5-0.5-1.1-0.7-1.7-0.7
	C187.4,123.1,187.3,123.1,187.2,123.1L187.2,123.1z M200.1,133.4l0-0.1L200.1,133.4z M176.9,127.6l5.7-6.2c0.7-0.8,1.5-1.4,2.3-1.8
	c0.8-0.4,1.7-0.7,2.6-0.7h0.3c0.7,0,1.4,0.1,2.1,0.4c0.8,0.3,1.5,0.8,2.2,1.4c1,0.9,1.7,2,1.9,3.2c0.2,1.1,0.1,2.3-0.3,3.3l9.9,2.6
	l-3.4,3.7l0,0.1l-9-2.6l-1.9,2.1l6.2,5.6l-2.9,3.2L176.9,127.6z M207.2,126.4L207.2,126.4L207.2,126.4z M193.5,110.5l3.3-2.8
	l13.8,16.1l-3.2,2.8l-0.1,0.1L193.5,110.5z M215.9,116.9c-1.3-0.3-2.4-0.8-3.2-1.7c-0.9-0.8-1.9-2.2-3.2-4.2
	c-1.3-1.9-2.1-3.4-2.6-4.6c-0.3-0.7-0.5-1.5-0.5-2.3c0-0.5,0-0.9,0.1-1.4c0.5-2.2,1.6-3.9,3.5-5.1c1.2-0.8,2.3-1.3,3.4-1.5
	c0.4-0.1,0.9-0.1,1.4-0.1c0.7,0,1.4,0.1,2.2,0.2l0.1,0l-0.8,4.1l-0.1,0c-0.6-0.1-1.2-0.2-1.7-0.2c-0.2,0-0.3,0-0.5,0
	c-0.6,0.1-1.1,0.3-1.8,0.7c-0.9,0.6-1.4,1.4-1.5,2.3c0,0.2,0,0.3,0,0.4c0,0.1,0,0.3,0,0.4c0,0.3,0.1,0.6,0.3,1
	c0.1,0.4,0.4,0.8,0.7,1.4c0.3,0.5,0.8,1.3,1.4,2.1c0.6,0.9,1.1,1.6,1.4,2.1c0.4,0.5,0.7,0.9,1,1.2c0.3,0.3,0.6,0.5,0.8,0.7
	c0.2,0.1,0.5,0.3,0.8,0.3c0.3,0.1,0.5,0.1,0.8,0.1c0.7,0,1.3-0.2,1.9-0.7c0.9-0.6,1.5-1.4,1.7-2.5c0-0.2,0-0.3,0-0.4
	c0-0.3,0-0.6-0.2-1c-0.1-0.5-0.4-1-0.7-1.4l-0.3-0.5l-3.1,2.1l-2-3l6.8-4.5l1.7,2.6c0.9,1.3,1.4,2.4,1.8,3.4l-0.1,0l0.1,0
	c0.3,1,0.4,2.1,0.1,3.1c-0.4,2.2-1.6,4-3.6,5.4c-1.4,1-2.9,1.4-4.5,1.4C217,117,216.4,117,215.9,116.9L215.9,116.9z M244,103.5
	l0.1,0L244,103.5z M224.9,89l4-1.8l3.5,7.8l6.3-2.9l-3.5-7.8l4-1.8l8.7,19.3l-3.9,1.8l-0.1,0l-3.6-8l-6.3,2.9l3.6,8l-4,1.8L224.9,89
	z M253.3,81.8l-5.3,1.5l-1-3.7l14.9-4.1l1,3.7l-5.3,1.5l4.6,16.6l-4.2,1.2L253.3,81.8z M279.5,80.9c-0.1-0.6-0.2-1.1-0.3-1.5
	c-0.1-0.4-0.3-0.7-0.4-0.9c-0.1-0.2-0.3-0.5-0.6-0.7c-0.6-0.5-1.3-0.8-2.1-0.8c-0.2,0-0.3,0-0.5,0c-0.5,0.1-1,0.2-1.4,0.5
	c-0.4,0.2-0.8,0.5-1,0.9c-0.2,0.2-0.3,0.5-0.4,0.8c-0.1,0.3-0.2,0.6-0.2,1c0,0.2,0,0.3,0,0.5c0,0.3,0,0.7,0,1.1
	c0,0.6,0.1,1.5,0.3,2.5c0.1,1.1,0.2,1.9,0.3,2.5c0.1,0.6,0.2,1.1,0.3,1.5c0.1,0.4,0.3,0.7,0.4,0.9c0.2,0.2,0.3,0.5,0.6,0.7
	c0.3,0.3,0.7,0.5,1.2,0.6c0.3,0.1,0.6,0.1,1,0.1c0.2,0,0.3,0,0.5,0c1.1-0.1,1.9-0.6,2.4-1.4c0.2-0.3,0.3-0.5,0.4-0.8
	c0.1-0.3,0.1-0.6,0.2-1c0-0.2,0-0.3,0-0.5c0-0.3,0-0.7,0-1.1c0-0.6-0.1-1.5-0.3-2.5C279.8,82.3,279.6,81.5,279.5,80.9 M274.4,94.3
	c-1-0.3-1.9-0.7-2.8-1.4c-1-0.8-1.8-1.8-2.2-3c-0.4-1.1-0.7-2.9-1-5.1c-0.2-1.7-0.3-3.1-0.3-4.3c0-0.4,0-0.7,0-1
	c0.1-1.2,0.5-2.4,1.4-3.4c0.7-0.9,1.5-1.6,2.4-2.1c0.9-0.5,1.9-0.8,3.1-1c0.4,0,0.8-0.1,1.2-0.1c0.7,0,1.4,0.1,2,0.3
	c1,0.3,1.9,0.7,2.8,1.4c1.1,0.8,1.8,1.8,2.2,2.9c0.4,1.1,0.7,2.8,1,5.1c0.2,1.8,0.3,3.2,0.3,4.3c0,0.3,0,0.6,0,0.9h-0.1h0.1
	c-0.1,1.2-0.6,2.4-1.4,3.4c-0.7,0.9-1.5,1.5-2.4,2.1c-0.9,0.5-1.9,0.8-3.1,1c-0.4,0-0.8,0.1-1.2,0.1C275.7,94.5,275,94.5,274.4,94.3
	L274.4,94.3z M336.4,81.7c-0.5,0.3-0.8,0.8-0.8,1.4c0,0.2,0,0.4,0.1,0.6c0.1,0.4,0.3,0.9,0.6,1.5c0.1,0,0.3-0.1,0.4-0.1
	c0.2-0.1,0.4-0.1,0.5-0.2c0.4-0.1,0.8-0.3,1.1-0.5c0.3-0.2,0.5-0.4,0.6-0.7c0.1-0.4,0.1-0.8-0.1-1.2c-0.2-0.4-0.5-0.6-1-0.8
	c-0.2-0.1-0.4-0.1-0.6-0.1C336.8,81.5,336.6,81.6,336.4,81.7L336.4,81.7z M331.8,90c-0.4,0.3-0.8,0.8-1,1.5
	c-0.1,0.3-0.2,0.6-0.2,0.8c0,0.5,0.1,0.9,0.4,1.4c0.4,0.7,1,1.2,1.9,1.5c0.4,0.2,0.9,0.2,1.3,0.2h0.3c0.5,0,1-0.1,1.6-0.4l-2.4-5.8
	C332.8,89.4,332.2,89.7,331.8,90L331.8,90z M338.4,100.6l-0.9-2.1l0,0c-0.9,0.3-1.8,0.5-2.6,0.6c-0.2,0-0.4,0-0.7,0
	c-0.7,0-1.6-0.2-2.5-0.5c-2.2-0.7-3.7-1.8-4.5-3.3c-0.5-0.9-0.7-1.8-0.7-2.8c0-0.7,0.2-1.5,0.4-2.3c0.4-1.2,1.1-2.1,2-2.7
	c0.9-0.6,2-1.1,3.3-1.4c-0.3-0.8-0.6-1.6-0.8-2.4c-0.1-0.3-0.1-0.7-0.1-1c0-0.5,0.1-1,0.3-1.5c0.5-1.4,1.3-2.4,2.6-2.9
	c0.7-0.3,1.4-0.4,2.2-0.4c0.7,0,1.5,0.1,2.2,0.4c1.6,0.5,2.7,1.4,3.4,2.6c0.4,0.8,0.6,1.5,0.6,2.4c0,0.5-0.1,1-0.3,1.6
	c-0.2,0.7-0.7,1.3-1.2,1.8c-0.5,0.4-1.2,0.8-2.1,1.1c-0.2,0.1-0.5,0.1-0.8,0.3c-0.3,0.1-0.6,0.2-0.8,0.3l2,4.8c0.8-0.6,1.5-1.6,2-3
	l0-0.1l3.7,1.2l0,0.1c-0.5,1.3-1.1,2.4-1.8,3.3c-0.7,0.9-1.5,1.6-2.3,2.1l2.3,5.6L338.4,100.6z M367.8,114.9L367.8,114.9l0.2,0
	L367.8,114.9L367.8,114.9L367.8,114.9l4.5-7.5l-5.9-3.7l-4.6,7.5l-3.7-2.3l11.1-18l3.7,2.3l-4.5,7.3l5.9,3.6l4.5-7.3l3.7,2.3
	l-11.1,18L367.8,114.9z M382.5,119.8c0,0.4,0.1,0.9,0.3,1.3c0.2,0.4,0.5,0.8,1,1.2c0.7,0.6,1.4,0.9,2.2,0.9c0.1,0,0.3,0,0.4,0
	c0.3,0,0.6-0.1,0.9-0.2c0.3-0.1,0.6-0.3,0.9-0.5c0.3-0.2,0.7-0.6,1.1-1.1c0.5-0.5,1-1.1,1.7-1.9c0.7-0.8,1.2-1.4,1.6-1.9
	c0.3-0.4,0.6-0.8,0.9-1.3c0.2-0.3,0.3-0.7,0.4-0.9c0.1-0.2,0.1-0.5,0.1-0.8v-0.1c0-1-0.4-1.8-1.2-2.5c-0.4-0.3-0.8-0.6-1.3-0.8
	c-0.3-0.1-0.6-0.1-0.9-0.1c-0.1,0-0.3,0-0.4,0c-0.3,0-0.6,0.1-0.8,0.2c-0.3,0.1-0.6,0.3-0.9,0.6c-0.3,0.3-0.7,0.6-1.1,1.1
	c-0.4,0.5-1,1.1-1.7,1.9c-0.7,0.8-1.2,1.5-1.6,1.9c-0.4,0.5-0.7,0.9-0.9,1.3c-0.2,0.4-0.3,0.7-0.4,1c-0.1,0.2-0.1,0.5-0.1,0.7
	C382.5,119.7,382.5,119.8,382.5,119.8L382.5,119.8z M384.1,126.9c-1-0.3-1.9-0.9-2.8-1.6c-0.9-0.8-1.6-1.6-2.1-2.5
	c-0.5-0.9-0.8-1.9-0.9-3c0-0.2,0-0.4,0-0.6c0-1.1,0.3-2.1,0.8-3c0.6-1.1,1.6-2.5,3.1-4.2c1.5-1.8,2.7-3,3.7-3.7
	c1-0.8,2.1-1.2,3.4-1.3c0.2,0,0.4,0,0.6,0c0.9,0,1.7,0.1,2.5,0.4c1,0.3,1.9,0.9,2.8,1.6c0.9,0.8,1.6,1.6,2.1,2.5
	c0.5,0.9,0.8,1.9,0.8,3c0,0.2,0,0.5,0,0.7c0,1.1-0.2,2-0.7,2.9c-0.6,1-1.6,2.4-3.1,4.2c-1.5,1.7-2.7,3-3.6,3.7
	c-0.9,0.8-2.1,1.2-3.5,1.3c-0.2,0-0.4,0-0.6,0C385.7,127.3,384.8,127.2,384.1,126.9L384.1,126.9z M395.7,139.3L395.7,139.3
	L395.7,139.3z M393.5,137l11.2-19.3l3,3.4l-7.2,12l12.8-5.7l3,3.4l-20.5,8.6l-0.1,0L393.5,137z M402.2,147.4L402.2,147.4l0.2,0
	L402.2,147.4L402.2,147.4L402.2,147.4l17.6-11.7l7.8,11.9l-3.2,2.1l-5.4-8.2l-3.9,2.6l4.6,7l-3.2,2.1l-4.6-7l-4,2.7l5.4,8.2
	l-3.2,2.1L402.2,147.4z M303.4,93.3v-0.1l0.1-0.1l-0.1,0.1V93.3L303.4,93.3l-8.3-12.6v12.6h-4.4V72.2h3.9l8.2,12.5V72.2h4.4v21.1
	H303.4z M362.3,234.7c0,0,1.4,2,3.2,2c1.8,0,3.2-2,3.2-2s-1.4-2-3.2-2C363.7,232.7,362.3,234.7,362.3,234.7L362.3,234.7z
	 M362.3,234.7"/>
<path class="st1" d="M449.1,208.7c-8,0-44.8-9.5-50.1-9.6c-8.2,0-26.6,10.1-36.1,16.4c-2.8,1.8-5.6,3.5-8.4,4.9
	c6.2,0.3,12.2,2.5,17.2,6.2c5.4,4,10.9,8.9,14.2,9.5c0.2,0,0.4,0,0.5,0h0c4.7,0.5,18.3,3.8,17.9,11.8c0,0-9.4-2.8-20.8-0.9
	c-4.5,0.9-11,1.6-20.8,4.7c-9.3,2.9-33.7,12.2-52.7,12.2c-14.5,0-43.8-8.3-60.7-9.8c-1-0.1-2-0.1-3-0.1c-12.9,0-23.9,6.7-29.4,6.8
	c-5,0-13.7-0.9-22.3-7.2c-6.5-4.9-11.3-12-11.4-17.2c0-1.7,0.6-3.4,2-4.5c1-0.7,2.3-0.9,4.1-0.9c6.6,0,19.8,2.9,35.3,2.9
	c9.2,0,19.3-1,29.3-4.2c2.3-0.8,9.3-2.4,13.8-3.5c1.2,0.8,2.4,1.7,3.9,2.7c0.3,0.2,0.8,0.1,1.1-0.2c0.2-0.3,0.1-0.8-0.2-1.1
	c-8.6-6-12.8-9.4-27.2-9.3c-9.2,0-22.7,1.3-44.6,3.9c-14.2,1.7-25.1,2.4-33.6,2.4c-14.1,0-21.2-1.8-24.7-3.7
	c-2.1-1.1-2.9-2.2-3.2-2.8c5.1-0.3,30.3-2.1,52.7-7c25.4-5.6,65.1-21.5,83.6-21.4c6.9-0.1,18.8,7.1,30.7,15
	c11.9,8,23.8,16.7,31.4,19.9c0.4,0.2,0.8,0,1-0.4c0.2-0.4,0-0.8-0.4-1c-4.3-1.8-10.4-5.7-17.1-10.2c9.2-4.3,41-23.5,63.9-23.5
	c10.9,0,42.9,9.1,52.6,13.2c4.6,1.9,7.8,3.4,9.9,4.5c1,0.5,1.8,1,2.2,1.3c0.1,0.1,0.2,0.2,0.3,0.3
	C449.8,208.7,449.5,208.7,449.1,208.7L449.1,208.7z M448,206c-2.1-1.1-5.3-2.6-9.9-4.6c-4.8-2-14.6-5.1-24.8-7.8
	c-14.2-52-61.8-90.2-118.3-90.2c-63.3,0-115.4,48-121.9,109.5c-6.2,0.9-12.2,1.6-17.4,2.2c-10.2,1.1-17.3,1.5-17.4,1.5
	c-0.4,0-0.7,0.3-0.7,0.7v0.1c0,0.6,0.4,2.9,4.2,4.9c3.9,2,11.2,3.8,25.4,3.8c1.6,0,3.3,0,5.1-0.1c0,67.7,54.9,122.6,122.6,122.6
	S417.6,293.7,417.6,226c0-7.7-0.8-15.2-2.1-22.5c12.6,2.8,28.5,6.4,33.6,6.4c0.5,0,1,0,1.4-0.2c0.3-0.1,0.8-0.4,0.8-0.9
	C451.1,207.7,450.1,207.2,448,206L448,206z M448,206"/>
<path class="st2" d="M383.7,247.1c11.3-1.9,20.8,0.9,20.8,0.9c0.4-8.4-14.3-11.6-18.5-11.9c0,0,2.1,4.5-9.4,5.3c0,0-5.4-0.1-7.6,1.8
	c0,0,10.6-0.8,14.3,3.3L383.7,247.1z M383.7,247.1"/>
</svg>
