<?xml version="1.0" encoding="utf-8"?>
<!-- Generator: Adobe Illustrator 26.0.3, SVG Export Plug-In . SVG Version: 6.00 Build 0)  -->
<svg version="1.0" id="katman_1" xmlns="http://www.w3.org/2000/svg" xmlns:xlink="http://www.w3.org/1999/xlink" x="0px" y="0px"
	 viewBox="0 0 359 272" style="enable-background:new 0 0 359 272;" xml:space="preserve">
<style type="text/css">
	.st0{fill:#FFFFFF;}
	.st1{fill:#0060A9;}
	.st2{fill:#FFE003;}
</style>
<g>
	<path class="st0" d="M178.8,38c0.4,0,1.1,0,1.5,0c0.4,0,0,0-0.8,0S178.4,38,178.8,38z"/>
	<path class="st1" d="M176.9,38c-0.2,0-0.8,0.1-1.4,0.1c-0.6,0.1-1.7,0.2-2.4,0.3c-0.7,0.1-2.1,0.3-3,0.5c-0.9,0.2-2.4,0.5-3.3,0.7
		c-0.9,0.2-2.4,0.6-3.4,0.9c-1,0.3-2.6,0.8-3.7,1.1s-2.8,0.9-4,1.3c-1.2,0.4-3,1.1-4.1,1.5c-1.1,0.4-2.8,1.1-3.8,1.6
		c-1,0.4-2.7,1.2-3.8,1.6c-1.1,0.5-2.4,1.1-3,1.4c-0.6,0.3-1.6,0.8-2.2,1.1c-0.6,0.3-2.1,1.1-3.4,1.7c-1.2,0.6-3,1.6-3.9,2.1
		c-0.9,0.5-2.4,1.3-3.4,1.9c-0.9,0.5-2.6,1.5-3.6,2.2c-1.1,0.7-2.8,1.7-3.8,2.4c-1,0.6-2.5,1.7-3.4,2.3c-0.9,0.6-2,1.4-2.6,1.9
		c-0.6,0.4-1.7,1.3-2.5,1.9c-0.8,0.6-1.9,1.5-2.5,2c-0.6,0.5-1.7,1.6-2.6,2.4c-0.8,0.8-1.8,1.8-2.2,2.3c-0.5,0.6-0.9,1.2-1.3,1.9
		c-0.5,0.9-0.6,1.4-1,2.6c-0.2,0.8-0.5,2.2-0.7,3c-0.2,0.8-0.5,2.6-0.7,3.8c-0.2,1.2-0.5,3.2-0.7,4.5c-0.2,1.2-0.4,3.2-0.5,4.3
		c-0.1,1.1-0.2,2.5-0.2,3c0,0.5-0.1,1.8-0.2,2.8c0,1-0.1,3.7-0.1,6c0,2.3,0,5,0.1,6c0.1,1,0.1,2.3,0.2,2.8c0,0.5,0.1,1.7,0.2,2.6
		c0.1,0.9,0.2,2.7,0.4,3.9c0.1,1.2,0.4,3,0.5,4.1c0.2,1.1,0.4,2.7,0.6,3.6c0.2,0.9,0.5,2.8,0.8,4.3c0.3,1.4,0.7,3.5,1,4.6
		c0.3,1.1,0.7,3,1.1,4.2c0.3,1.2,0.9,3.2,1.3,4.6c0.4,1.4,1.1,3.3,1.4,4.4c0.4,1.1,0.9,2.6,1.2,3.5c0.3,0.8,1,2.5,1.4,3.6
		c0.5,1.2,1.2,2.9,1.6,3.9c0.4,1,1.1,2.4,1.5,3.3c0.4,0.9,1.2,2.6,1.9,3.8c0.6,1.2,1.7,3.2,2.3,4.3c0.6,1.1,1.7,3,2.4,4.2
		c0.7,1.1,1.7,2.7,2.2,3.5s1.4,2.1,2,3c0.6,0.9,1.6,2.4,2.3,3.3c0.7,0.9,1.7,2.4,2.4,3.2c0.6,0.9,1.9,2.5,2.9,3.6
		c0.9,1.2,2.2,2.7,2.9,3.5c0.6,0.8,1.6,1.8,2.1,2.4c0.5,0.6,1.7,1.8,2.6,2.8c0.9,1,3,3.1,4.6,4.7c1.6,1.6,3.7,3.6,4.5,4.4
		s2.2,2,3.1,2.7c0.8,0.7,2.4,2.1,3.5,2.9c1.1,0.9,2.6,2.1,3.3,2.7c0.8,0.6,2.4,1.9,3.7,2.8c1.3,1,3.1,2.3,4.1,3c1,0.7,2.9,2,4.3,2.9
		c1.4,0.9,3.2,2.1,4.2,2.8c0.9,0.6,2.5,1.6,3.5,2.1c1.3,0.8,1.8,1.1,1.9,1c0.1-0.1,1.4-0.9,2.9-1.8c1.5-1,4.1-2.6,5.7-3.7
		c1.6-1.1,3.7-2.5,4.7-3.2c1-0.7,2.7-2,3.9-2.9c1.2-0.9,2.9-2.2,3.8-2.9c0.9-0.7,2.6-2.1,3.9-3.1c1.2-1,2.7-2.3,3.4-2.9
		c0.7-0.6,1.9-1.7,2.8-2.5c0.9-0.8,3.2-3.1,5.2-5c2-2,4.3-4.3,5.1-5.3c0.9-0.9,2.3-2.6,3.2-3.6c0.9-1.1,2.5-2.9,3.4-4.1
		c1-1.2,2.3-2.9,3-3.8c0.7-0.9,1.7-2.3,2.3-3.2c0.6-0.9,1.6-2.3,2.2-3.2c0.6-0.9,1.7-2.6,2.4-3.7c0.7-1.1,1.7-2.8,2.3-3.7
		c0.5-0.9,1.4-2.5,2-3.6c0.6-1,1.7-3.2,2.6-4.9c0.8-1.7,2-4.1,2.6-5.4c0.6-1.3,1.5-3.5,2.1-5c0.6-1.5,1.4-3.7,1.9-4.9
		c0.4-1.2,1.1-3.2,1.5-4.4c0.4-1.2,0.9-2.9,1.2-3.8c0.3-0.9,0.7-2.6,1.1-3.8c0.3-1.2,0.7-2.9,0.9-3.8c0.2-0.9,0.5-2.5,0.8-3.6
		c0.2-1,0.5-2.8,0.7-3.9c0.2-1.1,0.5-2.9,0.6-4c0.1-1.1,0.4-3,0.5-4.2c0.1-1.2,0.3-3.3,0.4-4.7s0.2-3.8,0.3-5.2
		c0.1-1.6,0.1-4.2,0-6.9c0-2.3-0.1-5-0.2-5.8c-0.1-0.9-0.2-2.6-0.3-3.8c-0.1-1.2-0.3-3.3-0.5-4.5c-0.2-1.2-0.4-3-0.6-4
		c-0.2-1-0.5-2.6-0.7-3.6c-0.2-1-0.6-2.6-0.8-3.5c-0.3-1.4-0.5-1.8-1-2.7c-0.3-0.7-0.8-1.3-1.2-1.8c-0.3-0.4-1.1-1.2-1.7-1.8
		c-0.6-0.6-1.6-1.6-2.4-2.3c-0.7-0.6-1.9-1.6-2.6-2.2c-0.7-0.6-1.7-1.3-2.2-1.8c-0.6-0.4-1.7-1.3-2.5-1.8c-0.8-0.6-2.2-1.5-3-2.1
		c-0.8-0.5-2.2-1.5-3-2c-0.9-0.5-2.4-1.5-3.5-2.1c-1-0.6-2.7-1.6-3.6-2.1c-0.9-0.5-2.6-1.5-3.7-2c-1.1-0.6-3.3-1.7-4.9-2.5
		c-1.6-0.8-4-2-5.4-2.6c-1.3-0.6-3.2-1.4-4.1-1.8c-0.9-0.4-2.5-1.1-3.6-1.5c-1-0.4-2.7-1-3.7-1.4c-1-0.4-2.8-1-3.9-1.3
		s-2.8-0.9-3.6-1.1c-0.9-0.2-2.4-0.7-3.4-0.9c-1-0.3-2.7-0.6-3.7-0.9c-1-0.2-2.4-0.5-3.1-0.6c-0.7-0.1-1.8-0.3-2.5-0.3
		c-0.8-0.1-2.2-0.2-4-0.2C178.5,38,177.1,38,176.9,38z"/>
	<path class="st2" d="M177.9,43.5c-0.3,0-1,0.1-1.7,0.1c-0.6,0.1-1.7,0.2-2.4,0.3c-0.7,0.1-1.9,0.3-2.8,0.5c-0.8,0.2-2.2,0.5-3,0.7
		c-0.8,0.2-2.3,0.6-3.2,0.8c-0.9,0.3-2.3,0.7-3.1,0.9c-0.8,0.3-2.3,0.8-3.3,1.1c-1,0.3-2.6,0.9-3.5,1.2c-0.9,0.3-2.5,1-3.5,1.4
		c-1,0.4-2.8,1.2-4,1.7c-1.1,0.5-2.9,1.3-3.9,1.8c-1,0.5-3,1.5-4.5,2.2c-1.5,0.7-3.4,1.8-4.4,2.3c-0.9,0.5-2.6,1.4-3.6,2
		c-1,0.6-2.8,1.7-4,2.4c-1.1,0.7-2.9,1.8-3.8,2.4c-1,0.6-2.5,1.7-3.5,2.4c-0.9,0.7-2.2,1.6-2.9,2.1c-0.7,0.5-1.6,1.3-2.1,1.7
		c-0.5,0.4-1.5,1.3-2.1,1.9c-0.7,0.6-1.6,1.5-2,1.9c-0.5,0.5-1.1,1.2-1.4,1.5l-0.5,0.6c-0.7,2.6-1,4-1.2,4.9
		c-0.2,0.9-0.5,2.3-0.6,3.3c-0.2,0.9-0.4,2.3-0.5,3.1c-0.1,0.8-0.3,2.2-0.4,3.2c-0.1,1-0.2,2.6-0.3,3.6c-0.1,1-0.2,2.9-0.2,4.3
		c-0.1,1.5-0.1,4.1-0.1,6.9c0,2.4,0.1,5.4,0.2,6.6c0.1,1.2,0.2,2.6,0.2,3.2c0.1,0.6,0.2,1.9,0.3,2.8c0.1,1,0.3,2.4,0.4,3.2
		c0.1,0.8,0.3,2.4,0.5,3.5c0.2,1.1,0.5,2.9,0.7,4c0.2,1.1,0.6,2.8,0.8,3.9c0.2,1,0.7,2.8,0.9,3.9c0.3,1.1,0.8,3,1.1,4.2
		c0.3,1.2,1,3.4,1.5,4.8c0.5,1.5,1.3,3.7,1.8,5c0.5,1.3,1.2,3.2,1.7,4.3c0.4,1.1,1.1,2.6,1.4,3.3c0.3,0.7,1.1,2.4,1.8,3.8
		c0.7,1.3,1.6,3.3,2.2,4.3c0.5,1,1.4,2.6,1.9,3.5c0.5,0.9,1.4,2.5,2,3.4c0.6,1,1.8,2.9,2.7,4.3c0.9,1.4,2.2,3.3,3,4.4
		c0.8,1,1.8,2.5,2.4,3.3c0.6,0.8,1.7,2.2,2.5,3.2c0.8,1,2.1,2.6,3,3.6c0.8,1,1.9,2.2,2.4,2.7c0.5,0.5,1.7,1.8,2.7,2.9
		c1,1.1,2.8,2.9,3.9,4c1.2,1.1,2.9,2.8,3.8,3.6c0.9,0.9,2.4,2.2,3.2,2.9c0.8,0.7,2.3,2,3.2,2.8c0.9,0.8,2.2,1.8,2.9,2.4
		c0.6,0.5,2,1.6,3,2.3c1,0.8,2.4,1.8,3.2,2.4c0.8,0.6,2.2,1.6,3.2,2.3c1,0.7,2.7,1.9,3.9,2.7s2.9,1.9,3.8,2.4c1.4,0.9,1.6,1,1.8,0.9
		c0.1-0.1,1.3-0.8,2.5-1.6c1.3-0.8,3.4-2.3,4.8-3.2c1.4-1,3.4-2.3,4.4-3.1c1-0.7,2.7-2,3.8-2.8c1.1-0.8,2.8-2.2,3.8-3
		c1-0.8,2.8-2.3,3.9-3.2c1.1-1,2.8-2.4,3.7-3.2c0.9-0.8,2.5-2.4,3.6-3.4c1.1-1,2.8-2.7,3.8-3.8c1-1,2.5-2.6,3.3-3.5
		c0.8-0.8,1.9-2.1,2.6-2.9c0.6-0.7,1.6-1.9,2.3-2.7c0.6-0.8,1.8-2.2,2.6-3.2c0.8-1,2-2.6,2.8-3.6c0.7-1,1.8-2.5,2.3-3.2
		c0.5-0.8,1.5-2.3,2.2-3.4c0.7-1.1,1.8-2.8,2.4-3.8c0.6-1,1.5-2.5,2-3.4c0.5-0.9,1.4-2.6,2-3.8c0.6-1.2,1.6-3.1,2.1-4.3
		c0.5-1.1,1.2-2.6,1.5-3.3c0.3-0.7,0.9-2.1,1.4-3.2c0.4-1.1,1.2-2.9,1.6-4.1c0.4-1.1,1.1-3,1.5-4.2c0.4-1.1,0.9-2.9,1.3-3.9
		c0.3-1,0.7-2.5,0.9-3.2c0.2-0.8,0.5-1.9,0.7-2.5c0.2-0.6,0.5-2.1,0.8-3.4c0.3-1.2,0.7-3.2,0.9-4.4c0.2-1.2,0.6-3.1,0.8-4.3
		c0.2-1.2,0.4-3,0.6-4c0.1-1,0.3-2.7,0.4-3.8c0.1-1.1,0.3-2.8,0.3-3.9c0.1-1.1,0.2-3,0.2-4.3c0.1-1.2,0.1-3.5,0.1-5
		c0-1.5,0-3.7-0.1-4.8c-0.1-1.2-0.1-2.8-0.2-3.6c-0.1-0.8-0.2-2.3-0.3-3.4c-0.1-1.1-0.3-2.8-0.4-3.8c-0.1-1-0.4-2.5-0.5-3.3
		c-0.1-0.8-0.4-2.2-0.6-3.1c-0.2-0.9-0.5-2.4-0.8-3.3c-0.2-0.9-0.5-1.8-0.5-2c-0.1-0.2-0.6-0.8-1.2-1.5c-0.6-0.7-1.7-1.8-2.5-2.5
		s-1.9-1.7-2.6-2.2c-0.7-0.5-1.9-1.5-2.7-2.1c-0.8-0.6-2.1-1.5-2.8-2c-0.7-0.5-1.9-1.3-2.6-1.8c-0.7-0.5-2-1.3-2.9-1.9
		c-0.9-0.6-2.4-1.5-3.4-2.1s-2.3-1.3-2.9-1.7c-0.6-0.4-2-1.1-2.9-1.6c-0.9-0.5-3-1.6-4.7-2.4c-1.6-0.8-3.9-1.9-5-2.4
		c-1.1-0.5-2.9-1.3-4-1.8c-1-0.5-2.7-1.1-3.6-1.5c-1-0.4-2.7-1-3.8-1.4c-1.1-0.4-3-1.1-4.3-1.5c-1.3-0.4-3-1-3.9-1.2
		c-0.8-0.2-2.3-0.6-3.2-0.9c-0.9-0.2-2.4-0.6-3.3-0.8c-0.9-0.2-2.1-0.4-2.6-0.5c-0.6-0.1-1.6-0.2-2.2-0.3c-0.7-0.1-2.1-0.2-3-0.2
		C179.2,43.5,178.2,43.5,177.9,43.5z"/>
	<path class="st1" d="M178.2,62.7c-0.3,0-1.1,0.1-1.8,0.1c-0.6,0.1-1.9,0.2-2.7,0.3c-0.8,0.1-2.2,0.3-3,0.5
		c-0.8,0.2-2.3,0.5-3.3,0.8s-2.7,0.7-3.8,1c-1,0.3-2.7,0.8-3.6,1.2s-2.4,0.8-3.2,1.1c-0.8,0.3-2.4,0.9-3.4,1.3
		c-1,0.4-2.7,1.1-3.6,1.5c-0.9,0.4-2.9,1.3-4.3,2c-1.4,0.7-3.4,1.7-4.4,2.2c-1,0.5-2.6,1.4-3.5,2c-0.9,0.6-2.3,1.4-3,1.9
		c-0.8,0.5-1.9,1.3-2.6,1.8c-0.7,0.5-1.7,1.3-2.2,1.7c-0.6,0.4-1.6,1.4-2.4,2.1c-0.8,0.7-1.6,1.6-1.9,2c-0.3,0.4-0.6,1-0.8,1.3
		c-0.1,0.3-0.3,0.9-0.4,1.4c-0.1,0.5-0.3,1.3-0.4,1.9c-0.1,0.6-0.2,1.4-0.2,1.9c0,0.5-0.1,1.4-0.2,2c0,0.6-0.1,3-0.1,5.3
		c0,2.3,0,4.4,0.1,4.6c0,0.2,0,0.7,0.1,1v0.6h111.5c0.1-1.4,0.2-3.3,0.2-5.2c0-2.2,0-4.2-0.1-5.5c-0.1-1.2-0.2-2.6-0.2-3.3
		c-0.1-0.7-0.2-1.7-0.3-2.3c-0.1-0.6-0.3-1.4-0.4-1.8s-0.3-0.9-0.5-1.2c-0.1-0.2-0.6-0.9-1.1-1.5c-0.5-0.6-1.3-1.4-1.7-1.8
		c-0.5-0.4-1.2-1-1.6-1.4c-0.4-0.3-1.3-1.1-2-1.6c-0.7-0.5-2.1-1.5-2.9-2.1c-0.9-0.6-2.4-1.5-3.3-2.1c-0.9-0.5-2.3-1.3-3.1-1.8
		c-0.8-0.4-2.6-1.4-4.1-2.1c-1.5-0.7-3.5-1.7-4.6-2.2c-1-0.5-2.4-1-3-1.3c-0.7-0.3-2.1-0.8-3.2-1.3c-1.1-0.4-3.1-1.1-4.3-1.6
		c-1.2-0.4-2.9-1-3.7-1.2c-0.8-0.2-2.1-0.6-2.8-0.8c-0.8-0.2-2.1-0.5-2.9-0.7c-0.8-0.2-2.3-0.5-3.2-0.6c-0.9-0.1-2.3-0.4-3.1-0.4
		c-0.8-0.1-2.1-0.2-2.9-0.2S178.5,62.6,178.2,62.7z"/>
	<path class="st0" d="M179.1,66.2c-0.2,0.5-0.5,1.4-0.7,2l-0.4,1.1c-2.4,0-3.2,0-3.8,0.1c-0.5,0.1-1.2,0.3-1.7,0.4
		c-0.4,0.1-1.2,0.4-1.6,0.7c-0.4,0.2-1.1,0.6-1.5,0.9c-0.4,0.2-0.9,0.7-1.3,1.1c-0.3,0.3-0.9,1-1.2,1.4c-0.3,0.4-0.7,1.1-0.9,1.4
		c-0.2,0.4-0.5,1-0.6,1.4c-0.2,0.4-0.4,1.1-0.5,1.5l-0.2,0.8c-3.4,0-4.4,0-4.4,0.1s0.8,0.7,1.7,1.3c1,0.7,1.8,1.3,1.8,1.4
		c0,0-0.1,0.4-0.3,0.8c-0.2,0.4-0.4,1.1-0.5,1.6c-0.2,0.8-0.2,1.1-0.2,2.8c0,1.8,0,2,0.3,2.9c0.1,0.5,0.5,1.4,0.8,2s0.8,1.4,1.1,1.8
		s0.9,1.1,1.4,1.5c0.4,0.4,1.2,1,1.7,1.4c0.5,0.3,1,0.6,1,0.6c0,0-0.3,1-0.7,2.1s-0.7,2.1-0.7,2.2c0,0,0,0,0.1,0s0.9-0.6,1.8-1.3
		c1-0.7,1.8-1.3,1.8-1.3c0,0,0.3,0.2,0.5,0.4c0.3,0.2,0.8,0.6,1.2,0.9c0.4,0.3,1.1,0.7,1.5,0.9c0.4,0.2,1,0.4,1.4,0.6
		c0.3,0.1,0.9,0.3,1.3,0.3c0.4,0.1,1.1,0.2,1.7,0.2c0.6,0,1.4,0,1.8-0.1c0.4-0.1,1.2-0.2,1.6-0.3c0.4-0.1,1.1-0.3,1.5-0.5
		c0.4-0.2,1.1-0.5,1.5-0.7c0.4-0.2,1.1-0.7,1.5-1c0.4-0.4,0.8-0.6,0.8-0.6c0,0,0.8,0.6,1.8,1.2c1,0.7,1.8,1.3,1.9,1.3s0-0.5-0.3-1.3
		c-0.2-0.7-0.5-1.7-0.7-2.2c-0.3-0.8-0.3-0.8-0.1-0.9c0.1,0,0.5-0.3,1-0.6c0.4-0.3,1.1-0.9,1.6-1.2c0.4-0.4,1-1.1,1.3-1.5
		c0.3-0.4,0.8-1.1,1-1.5c0.2-0.4,0.5-1.2,0.7-1.7c0.2-0.6,0.4-1.4,0.4-1.8c0.1-0.5,0.1-1.3,0.1-2.2c0-1-0.1-1.7-0.2-2.2
		c-0.1-0.4-0.3-1.2-0.5-1.6c-0.2-0.5-0.3-0.9-0.3-0.9c0-0.1,0.8-0.7,1.7-1.4c0.9-0.7,1.7-1.3,1.7-1.3c0,0-1-0.1-2.2-0.1h-2.1
		c-0.1-0.4-0.2-0.9-0.4-1.5c-0.2-0.5-0.4-1.3-0.6-1.7c-0.2-0.4-0.6-1.1-0.9-1.6c-0.3-0.5-0.9-1.2-1.3-1.7c-0.4-0.4-1.1-1-1.4-1.2
		c-0.4-0.3-1-0.6-1.4-0.9c-0.4-0.2-1.1-0.5-1.6-0.7c-0.4-0.1-1.2-0.3-1.7-0.4c-0.6-0.1-1.4-0.2-2.4-0.2l-1.6,0c-1-3-1.3-3.9-1.4-3.9
		C179.5,65.3,179.3,65.7,179.1,66.2z"/>
	<path class="st1" d="M179.4,66.8c0,0.1-0.2,0.8-0.3,1.6c-0.1,0.8-0.2,1.6-0.2,1.7c0,0.2,0,0.3,0,0.3c0,0-0.2-0.1-0.5-0.2
		c-0.3-0.1-0.6-0.2-1.1-0.2c-0.5,0-0.8,0-1.2,0.2c-0.3,0.1-0.7,0.4-1,0.6c-0.2,0.2-0.6,0.7-0.7,0.9c-0.1,0.3-0.5,0.7-0.7,1
		c-0.3,0.3-0.9,0.8-1.4,1.2c-0.5,0.4-1.3,0.9-1.7,1.2c-0.4,0.3-1,0.6-1.3,0.8c-0.3,0.1-0.8,0.3-1.2,0.4c-0.4,0.1-0.9,0.2-1.1,0.4
		c-0.2,0.1-0.5,0.4-0.7,0.5c-0.1,0.2-0.4,0.6-0.5,0.8c-0.1,0.3-0.2,0.7-0.2,1c0,0.3,0,0.6,0.1,0.7l0.1,0.2c-1-0.2-1.9-0.3-2.6-0.4
		c-0.7-0.1-1.4-0.2-1.4-0.1c0,0,0,0.1,0.1,0.1c0.1,0.1,0.9,0.5,1.8,1l1.7,0.9c-0.5,0.4-0.7,0.8-0.8,1c-0.2,0.4-0.2,0.6-0.2,1.2
		c0,0.6,0,0.9,0.2,1.2c0.1,0.2,0.4,0.7,0.7,1c0.3,0.3,0.7,0.9,0.9,1.4c0.2,0.4,0.6,1.4,0.8,2.1c0.2,0.7,0.5,1.6,0.6,2
		c0.1,0.5,0.1,1.1,0.1,1.9c0,1.1,0,1.3,0.2,1.7c0.1,0.2,0.4,0.6,0.6,0.8c0.2,0.2,0.6,0.5,0.8,0.6c0.3,0.1,0.6,0.2,0.8,0.2
		c0.1,0,0.3,0,0.4,0.1c0,0-0.1,0.4-0.3,0.7c-0.2,0.4-0.6,1.2-0.9,1.8c-0.3,0.6-0.5,1.1-0.4,1.1c0.1,0,0.7-0.6,1.5-1.3l1.4-1.4
		c0.3,0.7,0.6,1,0.9,1.3c0.3,0.2,0.7,0.4,1,0.5c0.3,0.1,0.7,0.1,1.1,0.1c0.3,0,0.8-0.2,1.2-0.3c0.4-0.2,0.9-0.3,1.1-0.4
		s1.3-0.1,2.3-0.2c1.4,0,2.1,0,2.8,0.1c0.7,0.1,1.2,0.2,1.6,0.5c0.6,0.3,0.7,0.3,1.4,0.3c0.6,0,0.9,0,1.2-0.2
		c0.2-0.1,0.6-0.3,0.8-0.5c0.2-0.2,0.5-0.5,0.6-0.7c0.1-0.2,0.2-0.4,0.2-0.4c0,0,0.3,0.2,0.6,0.6c0.3,0.4,1,1,1.4,1.4
		c0.4,0.4,0.8,0.7,0.9,0.6c0,0-0.3-0.8-0.8-1.8c-0.5-0.9-0.9-1.7-0.9-1.7c0,0,0.2-0.1,0.4-0.1c0.2,0,0.5-0.1,0.7-0.2
		c0.2-0.1,0.5-0.3,0.7-0.5c0.2-0.2,0.5-0.6,0.7-0.9c0.2-0.5,0.2-0.6,0.2-2c0-1.2,0-1.6,0.2-2.2c0.1-0.4,0.4-1.3,0.6-2
		c0.2-0.7,0.6-1.6,0.8-1.9c0.2-0.3,0.5-0.8,0.8-1.1c0.3-0.3,0.6-0.7,0.7-1c0.2-0.3,0.2-0.6,0.2-1.2c0-0.6,0-0.9-0.2-1.3
		c-0.1-0.3-0.4-0.6-0.6-0.8l-0.3-0.3c1.7-0.8,2.4-1.2,2.8-1.4c0.4-0.2,0.7-0.4,0.7-0.5c0-0.1-0.1-0.1-0.4,0c-0.2,0-0.9,0.1-1.6,0.2
		c-0.7,0.1-1.4,0.2-1.6,0.3l-0.3,0.1c0.2-0.8,0.2-1.1,0.1-1.4c-0.1-0.2-0.2-0.7-0.4-0.9c-0.1-0.3-0.5-0.6-0.7-0.8
		c-0.3-0.2-0.7-0.4-0.9-0.5c-0.3-0.1-0.6-0.1-0.7-0.1c-0.1,0-0.4-0.1-0.7-0.2c-0.3-0.1-0.9-0.4-1.3-0.7c-0.4-0.3-1.2-0.8-1.9-1.3
		c-0.6-0.5-1.3-1.1-1.6-1.4c-0.3-0.3-0.7-0.8-0.8-1c-0.1-0.2-0.4-0.6-0.6-0.8c-0.2-0.2-0.5-0.4-0.7-0.5c-0.3-0.1-0.6-0.2-1.2-0.2
		c-0.7,0-0.9,0-1.3,0.2c-0.2,0.1-0.5,0.2-0.5,0.2c0,0,0-0.2,0-0.3s-0.1-0.7-0.2-1.3c-0.1-0.6-0.2-1.3-0.3-1.6c0-0.3-0.1-0.5-0.2-0.5
		C179.5,66.7,179.4,66.7,179.4,66.8z"/>
	<path class="st0" d="M176.3,70.5c-0.2,0.1-0.5,0.2-0.7,0.4c-0.3,0.2-0.5,0.5-0.9,1c-0.3,0.5-0.7,1-1.2,1.4c-0.4,0.4-1.2,1-1.9,1.5
		c-0.6,0.5-1.6,1-2,1.3c-0.5,0.2-1.1,0.5-1.5,0.6c-0.4,0.1-0.9,0.3-1.2,0.4c-0.3,0.2-0.6,0.5-0.7,0.7c-0.1,0.2-0.3,0.6-0.4,0.9
		c-0.1,0.3-0.1,0.6,0,0.8c0,0.2,0.1,0.5,0.2,0.6c0.1,0.1,0.2,0.2,0.2,0.2c0,0,0.3,0.2,0.5,0.4c0.3,0.3,0.6,0.4,1.3,0.7
		c0.5,0.2,1.2,0.3,1.6,0.4c0.5,0.1,0.8,0.1,1.3,0c0.6-0.1,0.7-0.1,1,0c0.2,0.1,0.4,0.3,0.5,0.4c0.1,0.2,0.2,0.4,0.2,0.6
		c0,0.2-0.1,0.4-0.2,0.6c-0.1,0.2-0.4,0.3-0.5,0.3c-0.2,0-0.4,0-0.6,0c-0.2,0-0.6-0.3-0.9-0.6c-0.4-0.4-0.9-0.7-1.3-0.9
		c-0.4-0.2-1-0.4-1.4-0.5c-0.7-0.2-0.9-0.2-1.5-0.2c-0.5,0.1-0.8,0.1-1,0.3c-0.2,0.1-0.4,0.4-0.6,0.7c-0.2,0.4-0.2,0.6-0.2,1.2
		c0,0.5,0,0.8,0.2,1.1c0.1,0.2,0.4,0.6,0.7,0.9c0.3,0.4,0.6,0.9,0.9,1.5c0.2,0.5,0.6,1.5,0.8,2.2c0.2,0.7,0.5,1.6,0.5,2
		c0.1,0.6,0.1,1,0.1,1.8c-0.1,0.7,0,1.1,0.1,1.5c0.1,0.3,0.3,0.7,0.5,0.9c0.2,0.2,0.6,0.5,0.8,0.6c0.3,0.1,0.6,0.2,0.9,0.2
		c0.2,0,0.5-0.1,0.6-0.2c0.1-0.1,0.4-0.3,0.6-0.4c0.3-0.2,0.5-0.4,0.9-0.9c0.3-0.4,0.7-1.1,0.9-1.5c0.2-0.5,0.4-1,0.5-1.4
		c0.1-0.5,0.1-0.7,0.4-0.9c0.3-0.2,0.4-0.3,0.7-0.3c0.2,0,0.5,0,0.6,0.1c0.1,0.1,0.2,0.2,0.3,0.4c0.1,0.2,0.1,0.4,0.1,0.5
		c0,0.1-0.1,0.4-0.2,0.6c-0.1,0.2-0.4,0.4-0.8,0.6c-0.3,0.2-0.8,0.5-1.2,0.9c-0.3,0.3-0.8,0.9-1.1,1.3c-0.3,0.4-0.5,0.8-0.5,1
		s-0.1,0.4-0.1,0.5c-0.1,0.2-0.1,0.4,0,0.7c0,0.2,0.2,0.6,0.3,0.8c0.2,0.2,0.5,0.5,0.8,0.6c0.4,0.2,0.6,0.3,1.2,0.3
		c0.5,0,0.8-0.1,1.3-0.3c0.3-0.2,0.9-0.3,1.2-0.4c0.4-0.1,1.3-0.1,2.9-0.1c1.9,0,2.5,0,3,0.2c0.4,0.1,0.9,0.3,1.1,0.4
		c0.3,0.1,0.7,0.3,0.9,0.3c0.2,0,0.6,0,1-0.1c0.3-0.1,0.7-0.3,1-0.6c0.3-0.2,0.5-0.6,0.6-0.8c0.1-0.3,0.1-0.5,0.1-0.9
		c0-0.3-0.1-0.6-0.2-0.8c-0.1-0.2-0.4-0.6-0.6-0.9c-0.2-0.3-0.7-0.8-1-1.2c-0.4-0.4-0.7-0.7-1.2-0.9c-0.3-0.2-0.7-0.4-0.8-0.5
		c-0.1-0.2-0.2-0.4-0.2-0.6c0-0.2,0-0.4,0.1-0.7c0.1-0.3,0.3-0.4,0.6-0.5c0.3-0.1,0.4-0.1,0.7,0.1c0.2,0.1,0.4,0.3,0.5,0.5
		c0.1,0.2,0.2,0.5,0.2,0.8c0,0.3,0.2,0.8,0.4,1.2c0.2,0.4,0.6,1,0.9,1.4c0.3,0.4,0.6,0.9,0.8,1c0.1,0.1,0.5,0.3,0.7,0.4
		c0.3,0.1,0.6,0.2,0.8,0.2c0.2,0,0.5-0.1,0.7-0.2c0.2-0.1,0.5-0.3,0.7-0.4c0.2-0.1,0.4-0.5,0.6-0.8c0.2-0.4,0.2-0.5,0.2-1.7
		c0-0.9,0-1.5,0.1-2c0.1-0.4,0.3-1.3,0.6-2c0.2-0.7,0.6-1.7,0.9-2.2c0.3-0.6,0.6-1.1,0.9-1.4c0.2-0.2,0.5-0.6,0.6-0.8
		c0.1-0.2,0.2-0.6,0.2-0.8c0-0.2,0-0.6-0.1-0.9c-0.1-0.3-0.2-0.6-0.4-0.9c-0.2-0.2-0.4-0.5-0.7-0.6c-0.3-0.1-0.6-0.2-1-0.2
		c-0.4,0-0.8,0.1-1.3,0.2c-0.4,0.1-1.1,0.4-1.5,0.6c-0.5,0.2-0.9,0.5-1.2,0.8c-0.3,0.3-0.6,0.5-0.8,0.6c-0.3,0.1-0.5,0.1-0.7,0
		c-0.2,0-0.4-0.2-0.5-0.4c-0.1-0.2-0.2-0.4-0.2-0.7c0-0.3,0.1-0.5,0.3-0.7c0.2-0.2,0.4-0.3,0.6-0.3c0.2,0,0.5,0,0.8,0.1
		c0.3,0.1,0.7,0.1,1,0.1c0.3,0,0.9-0.2,1.4-0.3c0.5-0.1,1.2-0.4,1.5-0.5c0.3-0.2,0.7-0.4,0.9-0.6c0.2-0.2,0.3-0.4,0.4-0.6
		c0-0.1,0.1-0.4,0.1-0.7c0-0.2,0-0.6-0.1-0.8c-0.1-0.2-0.2-0.5-0.4-0.7c-0.1-0.2-0.5-0.5-0.8-0.6c-0.3-0.2-0.8-0.3-1.1-0.4
		c-0.3-0.1-0.9-0.3-1.4-0.5c-0.5-0.2-1.4-0.8-2-1.3c-0.6-0.5-1.5-1.1-1.9-1.5c-0.4-0.4-0.9-0.9-1.1-1.3c-0.2-0.4-0.5-0.8-0.7-0.9
		c-0.2-0.2-0.5-0.4-0.7-0.5c-0.3-0.2-0.6-0.2-1.1-0.2c-0.7,0-0.8,0-1.1,0.2c-0.2,0.1-0.5,0.4-0.6,0.6c-0.1,0.2-0.3,0.6-0.4,0.9
		c-0.1,0.3-0.1,0.9,0,1.6c0,0.6,0.1,1.4,0.2,1.7c0.1,0.3,0.3,0.7,0.4,0.9c0.2,0.3,0.2,0.5,0.2,0.9c0,0.3-0.1,0.5-0.3,0.7
		c-0.2,0.2-0.4,0.3-0.7,0.3c-0.3,0-0.4-0.1-0.7-0.3c-0.3-0.3-0.3-0.4-0.3-0.7c0-0.2,0.1-0.6,0.3-1.1c0.3-0.6,0.3-0.9,0.4-1.8
		c0.1-0.6,0.1-1.4,0-1.7c0-0.3-0.2-0.8-0.2-1c-0.1-0.2-0.3-0.5-0.4-0.6c-0.1-0.1-0.4-0.3-0.6-0.4c-0.2-0.1-0.6-0.2-0.9-0.2
		C176.8,70.4,176.5,70.4,176.3,70.5z"/>
	<path class="st1" d="M171.9,71.9l-1.5,0.7c-1.9,1.9-2.4,2.5-2.4,2.5c0,0,0.8-0.3,1.6-0.7l1.5-0.7c1.8-1.9,2.4-2.5,2.4-2.6
		c0,0,0,0-0.1,0S172.7,71.5,171.9,71.9z M185.6,71.3c0,0,0.5,0.6,1.2,1.3l1.2,1.3c2.2,1,2.9,1.3,2.9,1.3c0,0-0.4-0.6-1-1.2l-1.1-1.2
		C186.4,71.6,185.6,71.2,185.6,71.3C185.6,71.2,185.6,71.2,185.6,71.3z M177.8,78.8c-0.3,0.1-0.8,0.2-1,0.4
		c-0.2,0.1-0.6,0.3-0.9,0.5c-0.3,0.2-0.6,0.4-0.8,0.6s-0.5,0.5-0.8,0.8c-0.3,0.3-0.6,0.9-0.8,1.2c-0.2,0.4-0.4,0.9-0.5,1.3
		c-0.1,0.4-0.2,1-0.2,1.6c0,0.7,0.1,1.2,0.2,1.8c0.1,0.4,0.4,1,0.5,1.4c0.2,0.3,0.6,0.9,0.9,1.3c0.3,0.4,0.8,0.8,1,1
		c0.2,0.2,0.7,0.5,1.1,0.6c0.4,0.2,1,0.4,1.3,0.5c0.4,0.1,1.1,0.2,1.6,0.2s1.2-0.1,1.6-0.2c0.4-0.1,1-0.3,1.5-0.5
		c0.6-0.3,1-0.6,1.7-1.2c0.7-0.7,0.9-1,1.3-1.7c0.2-0.4,0.5-1.1,0.6-1.4c0.1-0.4,0.2-1,0.2-1.6c0-0.6-0.1-1.2-0.2-1.6
		c-0.1-0.3-0.3-1-0.6-1.4c-0.3-0.7-0.6-1-1.2-1.7s-1-0.9-1.7-1.2c-0.5-0.2-1.1-0.4-1.4-0.5c-0.4-0.1-1-0.1-1.7-0.1
		C178.8,78.6,178.2,78.7,177.8,78.8z"/>
	<path class="st2" d="M178.7,79c-0.3,0-0.6,0.1-0.7,0.1c-0.2,0.1-0.3,0.1-0.2,0.4c0,0.3,0,0.3,0.8,0.5c0.7,0.2,0.9,0.2,1.3,0.1
		c0.3,0,0.7-0.2,1-0.2c0.5-0.1,0.5-0.2,0.5-0.4c0-0.3,0-0.3-0.4-0.4c-0.2,0-0.8-0.1-1.1-0.1C179.5,78.9,178.9,78.9,178.7,79z"/>
	<path class="st0" d="M176.8,79.5c-0.3,0.1-0.7,0.4-0.9,0.5c-0.2,0.2-0.6,0.5-0.8,0.6c-0.2,0.2-0.4,0.4-0.4,0.4c0,0,0.1,0.1,0.3,0.1
		l0.3,0.1c-0.1,1.9-0.1,2.1,0,2.1c0.1,0,0.5,0.2,1,0.5l0.9,0.4l2.2-1.4l-0.1-2.4c-0.6-0.2-1-0.3-1.3-0.4c-0.5-0.1-0.5-0.1-0.5-0.5
		c0-0.2,0-0.3-0.1-0.3S177.1,79.4,176.8,79.5z M181.6,79.6c0,0.3-0.1,0.3-0.6,0.5c-0.3,0.1-0.7,0.2-0.9,0.3l-0.4,0.1
		c0,1.8,0,2.3,0,2.4s0.6,0.4,1.2,0.8l1.1,0.8l2-0.6c0-1.2,0.1-1.6,0.1-1.7c0-0.1,0.2-0.3,0.4-0.4l0.3-0.1c-0.6-0.8-1.1-1.2-1.4-1.4
		c-0.3-0.2-0.7-0.5-0.9-0.6c-0.2-0.1-0.5-0.2-0.6-0.3C181.6,79.3,181.6,79.3,181.6,79.6z"/>
	<path class="st2" d="M174.3,81.6c-0.1,0.2-0.4,0.6-0.6,1c-0.2,0.4-0.4,1-0.5,1.4c-0.1,0.4-0.1,0.7-0.1,0.7c0,0,0.1,0.1,0.3,0.1
		c0.2,0.1,0.3-0.1,0.8-0.7l0.6-0.7c0.1-1.4,0.1-1.8,0.1-1.9c0,0-0.1-0.1-0.3-0.2C174.6,81.3,174.5,81.3,174.3,81.6z M184.5,81.9
		c-0.2,0.1-0.3,0.1-0.3,1l-0.1,0.9c0.9,1.5,1.1,1.7,1.2,1.7c0.1,0,0.3,0,0.3,0c0.1,0,0.2-0.2,0.2-0.4c0-0.2-0.1-0.7-0.2-1.1
		c-0.1-0.4-0.3-1.1-0.5-1.5c-0.2-0.4-0.4-0.7-0.4-0.7C184.8,81.8,184.6,81.9,184.5,81.9z M178.5,83.7c-0.5,0.4-1,0.7-1.1,0.7
		c0,0,0,0.5,0.2,1.2c0.1,0.6,0.3,1.2,0.3,1.4l0.1,0.3h2.8c0.6-2.2,0.8-2.8,0.8-2.8c0,0-0.4-0.3-0.9-0.6c-0.5-0.3-1-0.6-1.1-0.7
		C179.5,83.1,179.1,83.3,178.5,83.7z"/>
	<path class="st0" d="M174.4,84.3c-0.6,0.7-0.6,0.7-0.9,0.6l-0.3-0.1c0.1,1.1,0.2,1.6,0.3,2c0.1,0.3,0.3,0.9,0.5,1.2l0.3,0.7
		l0.5-0.5c1.2,0.6,1.6,0.8,1.7,0.8c0.1,0,0.2-0.2,0.4-0.3c0.1-0.2,0.4-0.6,0.6-0.9l0.4-0.6l-0.7-2.7c-1.5-0.7-2-0.9-2-0.9
		C175,83.6,174.7,83.9,174.4,84.3z M182.8,84.4c-0.5,0.1-1,0.3-1,0.3c0,0-0.2,0.7-0.5,1.4l-0.4,1.3c1.1,1.2,1.4,1.6,1.5,1.6
		c0.1,0,0.5-0.2,1-0.3l0.9-0.3c0.3,0.3,0.5,0.4,0.5,0.4c0,0,0.2-0.3,0.4-0.6c0.2-0.4,0.4-0.9,0.5-1.2c0.1-0.3,0.2-0.7,0.2-0.9
		c0.1-0.4,0-0.4-0.1-0.3c-0.1,0-0.3,0.1-0.4,0.1c-0.2,0-0.3-0.1-0.7-0.8c-0.3-0.5-0.6-0.9-0.7-0.9C183.8,84.1,183.3,84.2,182.8,84.4
		z"/>
	<path class="st1" d="M164.2,86.8c0,0.1,0.1,0.9,0.3,1.7l0.2,1.5c1.2,2.2,1.5,2.9,1.6,2.9c0,0,0.1-0.1,0.1-0.2
		c0-0.2-0.1-0.9-0.2-1.7l-0.2-1.4c-1.2-2.3-1.7-2.9-1.7-2.9S164.1,86.6,164.2,86.8z M193.8,88.1l-0.8,1.5c-0.3,2.3-0.4,3-0.4,3.2
		c0,0.1,0,0.2,0.1,0.2c0,0,0.4-0.6,0.8-1.4l0.8-1.5c0.4-2.6,0.4-3.4,0.4-3.4C194.6,86.7,194.2,87.3,193.8,88.1z"/>
	<path class="st0" d="M177.3,88.2c-0.3,0.5-0.6,0.9-0.6,0.9c0,0,0.3,0.4,0.6,0.8c0.6,0.7,0.6,0.7,0.5,0.9c-0.1,0.1-0.1,0.2-0.1,0.3
		c0,0.1,0.2,0.2,0.5,0.2c0.3,0.1,0.9,0.1,1.4,0.1s1.1-0.1,1.4-0.1l0.5-0.1c-0.2-0.4-0.3-0.5-0.3-0.6c0,0,0.2-0.4,0.5-0.8
		c0.3-0.4,0.5-0.8,0.5-0.8c0-0.1-0.4-0.5-0.7-0.9l-0.7-0.8l-2.8,0L177.3,88.2z"/>
	<path class="st2" d="M174.5,88.7c-0.2,0.2-0.2,0.2,0.1,0.6c0.2,0.2,0.6,0.5,0.9,0.8c0.3,0.2,0.8,0.6,1.1,0.7
		c0.3,0.2,0.6,0.3,0.7,0.3c0.1,0,0.2-0.1,0.3-0.2c0.1-0.2,0-0.3-0.5-0.9c-0.5-0.6-0.7-0.8-1.4-1.1c-0.4-0.2-0.8-0.4-0.9-0.4
		C174.7,88.5,174.6,88.6,174.5,88.7z M183.3,88.9c-0.8,0.3-0.9,0.4-1.4,1.1c-0.5,0.7-0.6,0.7-0.4,1c0.1,0.2,0.1,0.2,0.5,0.1
		c0.2-0.1,0.6-0.3,0.9-0.5c0.3-0.2,0.8-0.5,1.1-0.8c0.3-0.3,0.6-0.6,0.6-0.7c0-0.1,0-0.3-0.1-0.4c-0.1-0.1-0.2-0.2-0.2-0.2
		C184.1,88.5,183.7,88.7,183.3,88.9z"/>
	<path class="st1" d="M177.6,99.7c-0.9,0.2-1.6,0.3-1.7,0.4s0,0.1,0.1,0.1c0.1,0,0.8,0.2,1.7,0.3l1.6,0.2c2.7-0.4,3.3-0.6,3.3-0.6
		c0-0.1-0.8-0.2-1.6-0.4c-0.9-0.2-1.6-0.3-1.7-0.3C179.3,99.3,178.5,99.5,177.6,99.7z M123,115.3c0,0.6,0.1,1.9,0.2,2.8
		c0,1,0.2,2.4,0.2,3.3c0.1,0.8,0.2,1.5,0.2,1.5c0,0,1.8-1.9,3.9-4.3c2.1-2.4,3.9-4.3,3.9-4.3c0,0-1.9-0.1-4.2-0.1h-4.2L123,115.3z
		 M139.2,118c-1.9,2-3.9,4.3-4.5,5c-0.6,0.7-2.9,3.2-5.2,5.7s-4.1,4.5-4.2,4.6c-0.1,0.2-0.1,0.3,0,0.7c0.1,0.3,0.3,1.5,0.6,2.6
		c0.3,1.1,0.7,2.9,1,3.9c0.3,1,0.8,2.5,1.1,3.4c0.3,0.9,0.6,1.6,0.6,1.7c0.1,0,2.8-2.9,6-6.5c3.3-3.6,8-8.8,10.6-11.7
		c2.6-2.8,6.3-6.9,8.3-9.1c2-2.2,3.6-4,3.5-4c0,0-3.3-0.1-7.3-0.1h-7.2L139.2,118z"/>
	<path class="st0" d="M167.6,155.9l0,41.6c3.5,3.3,4.5,4.1,5.3,4.7c0.7,0.4,2,1.3,2.9,2c0.9,0.6,2.1,1.4,2.6,1.7
		c0.8,0.5,1,0.6,1.2,0.5c0.1-0.1,1-0.6,2-1.2c1-0.6,2.6-1.8,3.7-2.5c1.6-1.1,2.2-1.6,4-3.2l2-1.9v-83.3h-23.7V155.9z"/>
	<path class="st1" d="M201.9,114.3c0,0,1.4,1.6,3.1,3.5c1.7,1.9,5.4,6,8.3,9.1c2.9,3.1,7.9,8.6,11.1,12.2c3.2,3.6,5.9,6.5,5.9,6.5
		c0,0,0.4-0.9,0.7-2c0.4-1.1,0.9-2.8,1.2-3.9c0.3-1.1,0.8-2.9,1-4c0.3-1.2,0.5-2.2,0.5-2.3s-2.1-2.5-4.8-5.4
		c-2.6-2.9-6.5-7.2-8.7-9.5l-3.9-4.3C205.2,114.3,202,114.3,201.9,114.3z M227.7,114.3c0,0,0.5,0.6,1.1,1.3c0.6,0.7,2.4,2.6,3.9,4.2
		c1.5,1.7,2.8,3,2.8,2.9c0,0,0.1-0.4,0.2-0.8c0-0.4,0.1-1,0.1-1.4c0-0.4,0.1-1.4,0.1-2.3c0-0.9,0.1-2.2,0.1-2.8l0.1-1.2
		C229.6,114.3,227.7,114.3,227.7,114.3z M185.2,117c-0.2,0.1-0.7,0.2-1.1,0.4c-0.4,0.2-0.9,0.5-1.2,0.7c-0.3,0.2-0.7,0.7-1,1
		c-0.3,0.4-0.8,1.2-1.3,2.2l-0.8,1.6c-0.5-0.1-0.8-0.2-1.1-0.3c-0.3-0.1-0.6-0.3-0.8-0.4l-0.3-0.2c-0.1,0.5-0.1,0.8-0.1,0.8
		c0,0.1,0.2,0.2,0.5,0.4c0.3,0.1,0.7,0.3,1,0.3c0.4,0.1,0.5,0.2,0.4,0.3c0,0.1-0.4,1.1-0.8,2.2c-0.4,1.1-0.9,2.6-1.2,3.2
		c-0.2,0.6-0.6,1.4-0.8,1.8l-0.3,0.7c-1-0.2-1.6-0.3-2.1-0.3c-0.4,0-1,0.1-1.3,0.1c-0.3,0.1-0.9,0.3-1.2,0.5
		c-0.4,0.2-0.8,0.5-1.1,0.7c-0.2,0.2-0.5,0.6-0.7,0.8c-0.1,0.2-0.2,0.6-0.2,0.7c0,0.2,0.1,0.4,0.1,0.6c0.1,0.2,0.2,0.4,0.4,0.6
		c0.2,0.1,0.6,0.3,0.9,0.4c0.3,0.1,1,0.2,1.5,0.2c0.7,0.1,1,0,1.5-0.1c0.4-0.1,0.9-0.4,1.3-0.6c0.3-0.2,0.8-0.6,1.1-0.9
		c0.3-0.3,0.5-0.6,0.5-0.6c0,0,0-0.1,0.1-0.1c0.1,0,0.4,0.2,0.6,0.4c0.3,0.2,0.9,0.6,1.4,0.8c0.5,0.2,1.2,0.5,1.5,0.7
		c0.3,0.1,0.9,0.2,1.2,0.3c0.3,0,0.9,0.1,1.2,0c0.3,0,1-0.1,1.4-0.2c0.4-0.1,1.1-0.4,1.5-0.6c0.4-0.2,1-0.6,1.4-1
		c0.4-0.3,0.8-0.9,1.1-1.2c0.4-0.6,0.4-0.7,0.4-1.1c0-0.4,0-0.5-0.2-0.5c-0.1,0-0.4,0.2-0.8,0.5c-0.4,0.3-0.9,0.7-1.3,0.9
		c-0.3,0.2-0.8,0.5-1.1,0.6c-0.4,0.2-0.7,0.2-1.6,0.2c-0.6,0-1.5-0.1-2-0.1c-0.5-0.1-1.1-0.2-1.5-0.3c-0.3-0.1-1-0.3-1.4-0.5
		c-0.5-0.2-0.8-0.4-0.8-0.4c0,0,0.2-0.4,0.4-0.8c0.2-0.4,0.8-1.4,1.1-2.2c0.4-0.8,0.9-1.9,1.1-2.5c0.2-0.6,0.5-1.4,0.7-1.8l0.2-0.8
		c0.7-0.1,1.3-0.3,1.7-0.4c0.4-0.2,1.1-0.4,1.4-0.6c0.3-0.2,0.8-0.5,1.1-0.7c0.3-0.2,0.8-0.6,1.1-0.9c0.3-0.3,0.6-0.8,0.9-1.2
		c0.4-0.7,0.4-0.8,0.4-1.6c0-0.9,0-0.9-0.3-1.2c-0.2-0.2-0.6-0.4-0.8-0.5c-0.3-0.1-0.7-0.2-1.1-0.2C185.9,116.9,185.4,117,185.2,117
		z"/>
	<path class="st0" d="M185.1,118.4c-0.2,0-0.4,0.2-0.6,0.3c-0.2,0.1-0.5,0.4-0.6,0.6c-0.2,0.2-0.5,0.9-0.8,2
		c-0.3,0.9-0.5,1.7-0.5,1.7c0,0,0.5-0.1,1-0.3c0.5-0.2,1.2-0.5,1.5-0.7c0.3-0.2,0.8-0.5,0.9-0.7c0.2-0.2,0.4-0.5,0.5-0.7
		c0.1-0.2,0.2-0.6,0.2-0.8c0-0.3,0-0.5-0.1-0.7c-0.1-0.2-0.3-0.4-0.4-0.4c-0.1-0.1-0.3-0.1-0.5-0.2
		C185.6,118.4,185.3,118.4,185.1,118.4z"/>
	<path class="st1" d="M156.5,127.2c-1.7,1.9-6.7,7.4-11.1,12.2c-4.3,4.8-9.1,10-10.6,11.7c-1.5,1.6-2.7,3-2.7,3.1s0.7,1.6,1.6,3.3
		c0.9,1.8,2.1,4,2.6,5c0.6,1,1,1.8,1.1,1.8c0,0,1.5-1.5,3.1-3.3c1.7-1.9,6-6.6,9.5-10.5c3.5-3.9,7.2-7.9,8.1-8.9l1.7-1.9
		c0-13.2,0-15.9-0.1-15.9C159.7,123.8,158.3,125.3,156.5,127.2z M199.1,131.7v8c4.2,4.6,7.9,8.7,10.9,12c3,3.3,6.9,7.5,8.5,9.4
		c2.3,2.5,3,3.3,3.1,3.2c0.1-0.1,0.6-0.9,1.2-2c0.6-1,1.5-2.7,2.1-3.8c0.5-1.1,1.2-2.5,1.5-3.2l0.6-1.2c-0.5-0.5-2.1-2.3-3.9-4.2
		c-1.8-1.9-5.1-5.7-7.5-8.2c-2.4-2.6-7-7.7-10.3-11.3c-3.3-3.6-6-6.6-6.1-6.6C199.2,123.7,199.1,126.5,199.1,131.7z"/>
	<path class="st0" d="M173.2,132.3c-0.3,0.1-0.6,0.3-0.8,0.4c-0.2,0.2-0.4,0.4-0.4,0.6c-0.1,0.1-0.1,0.4-0.1,0.6
		c0,0.2,0.1,0.4,0.2,0.5c0.1,0.1,0.3,0.2,0.4,0.3c0.1,0.1,0.5,0.1,0.8,0.1c0.4,0,0.7-0.1,1.1-0.2c0.3-0.1,0.7-0.4,0.9-0.7
		c0.2-0.3,0.5-0.6,0.6-0.7c0.1-0.2,0.1-0.3,0-0.4c-0.1-0.1-0.4-0.2-0.6-0.3c-0.2-0.1-0.6-0.2-0.9-0.2
		C173.8,132.2,173.5,132.2,173.2,132.3z"/>
	<path class="st1" d="M176.3,140.4c-0.3,0.1-0.8,0.3-1.1,0.4c-0.3,0.2-0.8,0.6-1.1,0.9c-0.3,0.3-0.6,0.7-0.6,0.7
		c0,0.1,0.1,0.2,0.2,0.4l0.2,0.2c0.5-0.6,0.8-0.9,0.9-1.1c0.2-0.2,0.5-0.4,0.8-0.5c0.3-0.2,0.6-0.2,1-0.2c0.5,0,0.6,0,0.8,0.2
		c0.2,0.2,0.2,0.3,0.2,0.8c0,0.3-0.1,0.8-0.2,1.1c-0.1,0.3-0.5,1.1-0.9,1.7c-0.4,0.7-1.1,1.9-1.7,2.9c-0.5,0.9-1.4,2.4-1.9,3.2
		c-0.6,1-1,1.7-1.2,2.4c-0.2,0.5-0.3,1.2-0.4,1.6c-0.1,0.5,0,0.8,0.1,1.3c0.1,0.4,0.3,0.7,0.6,1c0.3,0.3,0.6,0.5,1,0.6
		c0.3,0.1,0.9,0.2,1.5,0.2c0.5,0,1.1-0.1,1.4-0.1c0.3-0.1,0.8-0.3,1.1-0.4c0.3-0.1,0.8-0.5,1.1-0.7c0.3-0.3,0.7-0.6,0.9-0.9
		c0.2-0.2,0.3-0.4,0.4-0.4c0,0,0.1,0.2,0.1,0.4c0,0.2,0.2,0.6,0.4,0.9c0.2,0.3,0.5,0.7,0.7,0.8c0.2,0.2,0.6,0.4,0.9,0.6
		c0.5,0.2,0.6,0.2,1.5,0.2c0.7,0,1-0.1,1.3-0.3c0.2-0.1,0.6-0.3,0.7-0.5c0.1-0.1,0.4-0.5,0.5-0.7c0.2-0.4,0.2-0.6,0.2-1.2
		c0-0.5-0.1-0.9-0.2-1.1c-0.1-0.3-0.2-0.4-0.4-0.4c-0.1,0-0.4,0.1-0.5,0.1c-0.2,0.1-0.2,0.2-0.1,0.5c0.1,0.2,0.1,0.5,0.1,0.7
		c0,0.2-0.2,0.4-0.4,0.6c-0.3,0.3-0.3,0.3-1,0.3c-0.7,0-0.8,0-1.1-0.3c-0.2-0.2-0.4-0.5-0.4-0.7c-0.1-0.2-0.1-0.6,0-0.8
		c0-0.2,0.2-0.7,0.3-1.1c0.1-0.4,0.6-1.5,1.1-2.6c0.5-1,1.4-3,2.1-4.3c0.7-1.3,1.5-3.1,2-3.9c0.4-0.8,0.8-1.5,0.8-1.6
		c0-0.1-0.1-0.2-0.2-0.2c-0.1,0-0.6-0.1-1.1-0.1l-0.9-0.1c-0.4,0.4-0.9,1.4-1.4,2.3c-0.5,1-1.9,3.8-3,6.3c-1.2,2.5-2.3,4.7-2.4,5
		c-0.2,0.3-0.6,0.7-0.9,1c-0.3,0.3-0.9,0.7-1.2,0.9c-0.6,0.3-0.8,0.3-1.5,0.4c-0.8,0-0.8,0-1.1-0.2c-0.2-0.2-0.3-0.4-0.4-0.7
		c-0.1-0.3,0-0.6,0.1-1.1c0.1-0.4,0.4-1.1,0.7-1.8c0.3-0.6,1-1.8,1.5-2.7s1.4-2.4,1.9-3.3c0.5-0.9,1.1-2,1.4-2.6
		c0.3-0.7,0.5-1.1,0.5-1.4c0-0.2-0.1-0.6-0.2-0.9c-0.1-0.3-0.4-0.6-0.6-0.7c-0.2-0.1-0.6-0.3-0.9-0.4c-0.3-0.1-0.8-0.2-1.1-0.2
		C177.1,140.3,176.6,140.3,176.3,140.4z M158.3,153.5c-0.8,0.8-4.1,4.5-7.4,8.1c-3.3,3.6-6,6.7-6.1,6.7c0,0-0.7,0.8-1.5,1.6
		l-1.4,1.5c0.5,0.7,1.2,1.6,1.8,2.4c0.6,0.8,1.7,2.2,2.3,3c0.7,0.8,1.5,1.9,2,2.4c0.4,0.5,0.8,0.9,0.8,0.8c0,0,0.5-0.5,1-1.1
		c0.5-0.6,3-3.3,5.5-6l4.5-5c0-12.4,0-15.9-0.1-15.9C159.7,152,159.1,152.7,158.3,153.5z M199.1,160l0,8c3.4,3.8,5.4,5.9,6.6,7.3
		c1.2,1.3,2.7,3,3.3,3.6c0.6,0.6,1.1,1.2,1.1,1.1c0.1,0,0.7-0.7,1.4-1.5c0.7-0.8,1.8-2.1,2.4-2.9c0.6-0.8,1.5-2,2-2.6
		c0.5-0.7,0.9-1.3,1-1.3c0-0.1-1.3-1.7-3.8-4.4c-2.1-2.3-6.1-6.7-8.8-9.7c-2.7-3-5-5.5-5-5.5C199.2,152.1,199.1,153.7,199.1,160z
		 M188.9,161.8c-0.1,0.1-0.4,0.4-0.5,0.5c-0.2,0.1-0.4,0.3-0.6,0.4c-0.2,0.1-0.7,0.1-1.1,0.2c-0.5,0.1-1.5,0.1-2.9,0
		c-1.1,0-2.8-0.1-3.8-0.1c-1,0-2.1,0-2.5,0.1c-0.4,0.1-1.1,0.2-1.5,0.3c-0.4,0.1-1,0.3-1.2,0.5c-0.2,0.2-0.6,0.5-0.7,0.8
		c-0.2,0.4-0.3,0.6-0.3,1.1c0,0.6,0,0.7,0.3,1c0.2,0.3,0.5,0.5,0.9,0.7c0.6,0.3,0.8,0.3,1.3,0.3c0.4,0,0.7-0.1,0.9-0.2
		c0.2-0.1,0.2-0.2,0.1-0.3c-0.1-0.1-0.4-0.3-0.7-0.4c-0.3-0.1-0.6-0.3-0.7-0.4c-0.1-0.1-0.2-0.3-0.2-0.4c0-0.1,0.1-0.4,0.1-0.5
		c0.1-0.1,0.2-0.3,0.4-0.4c0.1-0.1,0.5-0.2,0.8-0.3c0.3-0.1,1-0.2,1.4-0.2c0.5,0,1.1,0,1.2,0l0.3,0.1c-0.1,0.8-0.2,1.6-0.4,2.2
		c-0.1,0.6-0.3,1.4-0.4,1.7c-0.1,0.3-0.2,0.9-0.4,1.2c-0.2,0.6-0.3,0.7-0.4,0.8c-0.1,0-0.5,0.1-0.9,0.1c-0.4,0-0.9,0.1-1.3,0.2
		c-0.3,0.1-0.8,0.3-1.1,0.5c-0.3,0.2-0.6,0.5-0.7,0.7c-0.1,0.3-0.2,0.5-0.2,1c0,0.5,0,0.6,0.2,0.9c0.1,0.2,0.3,0.3,0.4,0.3
		c0.1,0,0.2-0.2,0.2-0.6c0.1-0.4,0.1-0.6,0.4-0.8c0.2-0.2,0.5-0.3,0.8-0.4c0.3-0.1,0.8-0.1,1.2-0.1c0.4,0,0.7,0,0.7,0
		c0,0-0.1,0.5-0.3,1.1c-0.2,0.6-0.5,1.6-0.8,2.1c-0.2,0.6-0.6,1.4-0.9,1.8c-0.2,0.4-0.6,0.9-0.8,1.1c-0.3,0.3-0.6,0.5-1.1,0.6
		c-0.5,0.2-0.8,0.2-1.1,0.1c-0.3,0-0.6-0.2-0.7-0.3c-0.2-0.1-0.3-0.4-0.4-0.7c-0.1-0.3-0.2-0.5-0.3-0.6c-0.1,0-0.2,0-0.3,0.1
		c-0.1,0.1-0.1,0.3-0.1,0.6c0,0.2,0.1,0.6,0.2,0.8c0.1,0.2,0.3,0.5,0.5,0.6c0.2,0.2,0.5,0.5,0.8,0.6c0.4,0.2,0.6,0.2,1.5,0.2
		c1,0,1.1,0,1.6-0.3c0.3-0.1,0.8-0.5,1.1-0.7c0.3-0.2,0.7-0.7,1-1c0.3-0.3,0.7-0.9,0.9-1.3c0.2-0.4,0.7-1.1,0.9-1.7
		c0.3-0.5,0.6-1.5,0.8-2l0.3-1c1.2,0.1,1.8,0,2.2,0c0.4-0.1,0.8-0.2,1.1-0.3c0.2-0.1,0.6-0.4,0.8-0.7c0.2-0.3,0.4-0.6,0.5-0.8
		c0.1-0.2,0.1-0.6,0.1-0.8c0-0.2-0.1-0.5-0.2-0.6c-0.1-0.1-0.2-0.3-0.3-0.3c-0.1,0-0.2,0.1-0.2,0.3c0,0.2-0.1,0.5-0.2,0.6
		c-0.1,0.2-0.4,0.4-0.6,0.5c-0.3,0.2-0.7,0.2-1.2,0.3c-0.4,0-0.9,0-1,0l-0.3-0.1c0.3-1,0.6-2.3,0.8-3.6c0.5-2.4,0.5-2.4,0.7-2.3
		c0.1,0,0.9,0,1.8-0.1c0.8-0.1,1.8-0.2,2-0.3c0.3-0.1,0.7-0.2,1-0.4c0.2-0.1,0.6-0.4,0.8-0.6c0.2-0.2,0.5-0.5,0.6-0.7
		c0.1-0.2,0.2-0.5,0.2-0.7c0-0.2,0-0.4-0.1-0.4C189.1,161.5,189.1,161.5,188.9,161.8z M157.4,182.9c-1.3,1.4-2.5,2.7-2.6,2.9
		l-0.3,0.4c2,1.9,3.2,3,3.9,3.7c0.8,0.7,1.4,1.2,1.5,1.2c0,0,0.1-2.5,0.1-5.4c0-3.3,0-5.3-0.1-5.3
		C159.7,180.3,158.6,181.5,157.4,182.9z M199.1,185.7c0,2.9,0,5.4,0.1,5.4c0,0,0.4-0.2,0.8-0.6c0.4-0.4,1.6-1.5,2.6-2.5
		c1-1,1.9-1.8,1.8-1.9c0,0-1.2-1.4-2.6-2.9c-1.4-1.6-2.6-2.9-2.7-2.9C199.2,180.3,199.1,182.2,199.1,185.7z M182.2,181
		c-0.4,0.1-1.1,0.4-1.7,0.7c-0.5,0.3-1.4,0.8-1.9,1.1c-0.5,0.4-1.4,1.1-2,1.7c-0.6,0.6-1.4,1.4-1.7,1.8c-0.3,0.4-0.8,1.2-1.1,1.8
		c-0.3,0.5-0.7,1.4-0.8,2c-0.2,0.6-0.4,1.4-0.5,1.9c-0.1,0.5-0.1,1.3-0.1,1.8s0.1,1.1,0.1,1.5c0.1,0.4,0.3,1,0.5,1.4
		c0.2,0.5,0.6,1,0.9,1.4c0.3,0.3,0.8,0.8,1,0.9c0.3,0.2,0.8,0.4,1.2,0.5c0.5,0.1,1,0.2,1.7,0.2c0.7,0,1.1,0,1.6-0.2
		c0.3-0.1,0.9-0.4,1.2-0.7c0.4-0.3,0.8-0.7,1.3-1.3c0.4-0.5,0.8-1.1,1-1.4s0.3-0.6,0.3-0.8c0-0.1-0.1-0.3-0.1-0.3
		c-0.1-0.1-0.2-0.1-0.3-0.1c-0.1,0-0.4,0.3-0.6,0.7c-0.2,0.4-0.8,1-1.2,1.4c-0.6,0.6-0.9,0.8-1.2,0.9c-0.3,0.1-0.8,0.2-1.1,0.2
		c-0.3,0-0.8,0-1.1-0.1c-0.3-0.1-0.6-0.2-0.9-0.5c-0.2-0.2-0.5-0.5-0.6-0.8c-0.1-0.2-0.3-0.6-0.4-0.9c-0.1-0.3-0.2-0.8-0.2-1.1
		c0-0.4,0-1,0.1-1.5c0.1-0.5,0.2-1.2,0.3-1.6c0.1-0.4,0.4-1.2,0.6-1.7c0.2-0.5,0.6-1.4,0.8-1.9c0.3-0.6,0.8-1.4,1.1-1.9
		c0.3-0.5,0.9-1.2,1.2-1.6c0.4-0.4,1-0.9,1.3-1.2c0.4-0.3,1-0.7,1.4-0.9c0.4-0.2,1-0.4,1.4-0.5c0.4-0.1,0.8-0.1,1-0.1
		c0.2,0,0.5,0.2,0.6,0.3c0.1,0.1,0.3,0.4,0.4,0.7c0.1,0.3,0.1,0.6,0.1,1c0,0.3-0.1,0.7-0.1,0.8c0,0.2,0,0.3,0.1,0.4
		c0.1,0.1,0.2,0.1,0.3,0.1c0.1,0,0.2-0.2,0.3-0.4s0.2-0.6,0.2-1c0-0.5,0-0.8-0.1-1.2c-0.1-0.3-0.3-0.7-0.5-0.9
		c-0.2-0.2-0.5-0.5-0.7-0.6c-0.3-0.1-0.7-0.2-1.5-0.2C183.1,180.8,182.7,180.9,182.2,181z"/>
	<path class="st0" d="M142.8,205.9c0.8,0.8,1.5,1.5,1.6,1.5c0,0-0.6-0.7-1.4-1.5c-0.8-0.8-1.5-1.5-1.6-1.5
		C141.3,204.4,142,205.1,142.8,205.9z"/>
</g>
</svg>
